<svg id="svg" xmlns="http://www.w3.org/2000/svg" xmlns:xlink="http://www.w3.org/1999/xlink" width="400" height="40.433384926777" viewBox="0, 0, 400,40.433384926777"><g id="svgg"><path id="path0" d="M121.526 13.001 C 121.134 13.264,120.327 13.641,119.731 13.840 C 118.498 14.250,118.188 15.019,119.208 15.136 C 120.071 15.235,120.083 15.350,120.083 22.973 L 120.083 30.030 119.690 30.348 C 119.473 30.523,119.155 30.667,118.982 30.667 C 118.743 30.667,118.667 30.788,118.667 31.167 L 118.667 31.667 121.428 31.667 L 124.189 31.667 124.136 31.208 C 124.099 30.888,123.976 30.735,123.726 30.699 C 122.830 30.571,122.754 30.252,122.699 26.396 L 122.648 22.825 123.366 22.500 C 126.007 21.301,126.755 22.448,126.640 27.516 C 126.579 30.216,126.413 30.667,125.482 30.667 C 125.243 30.667,125.167 30.788,125.167 31.167 L 125.167 31.667 127.833 31.667 L 130.500 31.667 130.500 31.188 C 130.500 30.793,130.415 30.691,130.019 30.612 C 129.289 30.466,129.167 29.867,129.167 26.422 C 129.167 20.580,127.755 19.048,124.095 20.915 L 122.628 21.664 122.689 17.237 C 122.759 12.160,122.762 12.171,121.526 13.001 M256.144 12.813 C 255.564 13.266,254.514 13.772,253.697 13.992 C 252.835 14.224,252.695 15.034,253.500 15.137 C 254.335 15.244,254.333 15.230,254.333 22.923 C 254.333 30.791,254.349 30.667,253.362 30.667 C 253.071 30.667,253.000 30.765,253.000 31.167 L 253.000 31.667 255.667 31.667 L 258.333 31.667 258.333 31.167 C 258.333 30.792,258.256 30.667,258.026 30.667 C 257.078 30.667,257.084 30.730,257.072 21.381 C 257.061 11.995,257.071 12.089,256.144 12.813 M105.125 13.347 C 104.210 13.880,104.095 15.295,104.900 16.100 C 105.619 16.819,106.052 16.815,106.788 16.079 C 108.101 14.766,106.685 12.438,105.125 13.347 M183.125 13.347 C 182.200 13.885,182.095 15.295,182.918 16.118 C 183.574 16.774,184.094 16.776,184.789 16.128 C 186.111 14.894,184.653 12.457,183.125 13.347 M237.383 13.417 C 236.594 13.970,236.502 15.466,237.217 16.133 C 238.723 17.538,240.641 15.115,239.179 13.654 C 238.633 13.107,237.954 13.018,237.383 13.417 M309.487 13.654 C 308.227 14.914,309.477 17.204,310.996 16.419 C 312.067 15.865,312.228 14.362,311.299 13.580 C 310.648 13.032,310.086 13.055,309.487 13.654 M271.122 13.504 C 268.634 14.133,267.167 16.039,267.167 18.645 C 267.167 20.819,267.802 21.735,270.955 24.116 C 274.353 26.681,274.890 29.033,272.401 30.456 C 270.410 31.594,268.557 30.504,267.640 27.655 L 267.283 26.547 266.712 26.722 C 266.194 26.881,266.149 26.944,266.226 27.407 C 266.272 27.687,266.436 28.646,266.591 29.537 L 266.871 31.157 267.765 31.491 C 275.609 34.426,280.001 25.546,272.917 21.074 C 269.717 19.055,268.787 16.969,270.378 15.378 C 272.012 13.744,274.436 14.863,275.066 17.544 C 275.168 17.979,275.592 18.053,276.176 17.737 C 276.226 17.710,276.156 16.860,276.020 15.849 L 275.772 14.010 275.011 13.743 C 274.083 13.418,271.977 13.288,271.122 13.504 M67.333 14.375 C 67.333 14.747,67.408 14.833,67.732 14.833 C 69.033 14.833,69.158 15.510,69.163 22.602 C 69.168 29.966,69.052 30.647,67.792 30.661 C 67.395 30.666,67.333 30.734,67.333 31.167 L 67.333 31.667 70.583 31.667 L 73.833 31.667 73.833 31.261 C 73.833 30.983,73.716 30.823,73.458 30.751 C 72.182 30.393,72.000 29.854,72.000 26.436 L 72.000 24.222 72.542 23.607 L 73.083 22.991 74.659 25.454 C 78.893 32.074,78.455 31.667,81.337 31.667 C 83.370 31.667,83.703 31.237,82.203 30.549 C 81.283 30.127,80.387 29.103,79.161 27.074 C 78.710 26.327,77.589 24.608,76.670 23.255 L 74.999 20.794 76.290 19.189 C 78.359 16.614,79.799 15.237,80.672 14.999 C 81.082 14.887,81.510 14.769,81.625 14.736 C 81.740 14.704,81.833 14.505,81.833 14.294 L 81.833 13.910 78.917 13.913 L 76.000 13.917 76.000 14.364 C 76.000 14.723,76.087 14.822,76.442 14.864 C 77.557 14.997,77.339 15.833,75.667 17.833 C 75.092 18.521,74.051 19.830,73.353 20.742 L 72.083 22.400 72.027 21.825 C 71.897 20.502,72.098 15.738,72.298 15.381 C 72.418 15.168,72.787 14.935,73.170 14.833 C 73.689 14.693,73.833 14.574,73.833 14.285 C 73.833 13.918,73.826 13.917,70.583 13.917 L 67.333 13.917 67.333 14.375 M168.500 14.375 C 168.500 14.756,168.572 14.833,168.928 14.833 C 170.275 14.833,170.331 15.154,170.332 22.850 C 170.333 30.416,170.289 30.667,168.928 30.667 C 168.564 30.667,168.500 30.741,168.500 31.167 L 168.500 31.667 171.833 31.667 L 175.167 31.667 175.167 31.287 C 175.167 30.989,175.013 30.853,174.460 30.662 C 173.353 30.278,173.252 29.928,173.251 26.500 L 173.250 23.583 174.294 23.534 C 176.625 23.423,177.449 23.760,177.749 24.948 C 177.915 25.606,178.025 25.759,178.359 25.799 L 178.766 25.849 178.766 23.000 L 178.766 20.151 178.346 20.201 C 177.997 20.242,177.902 20.370,177.786 20.961 C 177.578 22.016,177.170 22.211,174.984 22.301 L 173.167 22.376 173.167 19.047 C 173.167 14.894,173.297 14.721,176.083 15.166 C 177.834 15.445,178.386 16.009,178.732 17.875 C 178.848 18.499,179.046 18.624,179.481 18.349 C 179.676 18.225,179.679 17.867,179.505 16.054 L 179.299 13.906 173.899 13.911 L 168.500 13.917 168.500 14.375 M105.833 20.450 C 105.329 20.759,104.519 21.129,104.032 21.271 C 102.995 21.574,102.774 22.362,103.696 22.468 C 104.538 22.566,104.583 22.770,104.583 26.508 C 104.583 30.250,104.509 30.571,103.608 30.699 C 103.357 30.735,103.234 30.888,103.197 31.208 L 103.145 31.667 105.822 31.667 L 108.500 31.667 108.500 31.167 C 108.500 30.780,108.425 30.667,108.171 30.667 C 107.335 30.667,107.250 30.138,107.250 24.953 C 107.250 19.395,107.299 19.551,105.833 20.450 M134.833 20.366 C 134.421 20.629,133.652 21.002,133.125 21.195 C 132.038 21.592,131.654 22.500,132.574 22.500 C 133.395 22.500,133.500 22.946,133.500 26.443 C 133.500 30.019,133.412 30.459,132.669 30.608 C 132.250 30.692,132.167 30.788,132.167 31.188 L 132.167 31.667 134.833 31.667 L 137.500 31.667 137.500 31.252 C 137.500 30.938,137.362 30.780,136.928 30.599 C 136.122 30.262,136.002 29.662,136.001 25.962 L 136.000 22.841 136.432 22.558 C 136.965 22.209,138.495 22.063,138.969 22.317 C 140.226 22.989,139.948 30.667,138.667 30.667 C 138.407 30.667,138.333 30.778,138.333 31.167 L 138.333 31.667 141.000 31.667 L 143.667 31.667 143.667 31.188 C 143.667 30.788,143.583 30.692,143.164 30.608 C 142.417 30.458,142.333 30.022,142.333 26.266 L 142.333 22.886 143.148 22.443 C 145.404 21.215,146.000 22.127,146.000 26.805 C 146.000 30.212,145.953 30.408,145.083 30.639 C 144.707 30.739,144.570 30.883,144.531 31.219 L 144.478 31.667 147.156 31.667 L 149.833 31.667 149.833 31.188 C 149.833 30.793,149.749 30.691,149.354 30.613 C 148.652 30.472,148.616 30.276,148.512 26.083 C 148.404 21.742,148.317 21.427,147.026 20.701 C 145.554 19.874,144.394 20.083,142.681 21.482 C 142.225 21.855,141.920 22.007,141.878 21.883 C 141.718 21.406,141.059 20.768,140.430 20.483 C 139.220 19.933,138.512 20.078,136.851 21.215 L 136.118 21.716 136.203 20.958 C 136.324 19.882,135.887 19.693,134.833 20.366 M183.883 20.419 C 183.406 20.711,182.596 21.081,182.082 21.243 C 181.000 21.584,180.755 22.359,181.696 22.468 C 182.538 22.566,182.583 22.770,182.583 26.508 C 182.583 30.285,182.489 30.667,181.558 30.667 C 181.234 30.667,181.167 30.753,181.167 31.167 L 181.167 31.667 183.833 31.667 L 186.500 31.667 186.500 31.188 C 186.500 30.794,186.415 30.691,186.024 30.613 C 185.217 30.452,185.110 29.671,185.199 24.572 C 185.289 19.445,185.319 19.541,183.883 20.419 M190.833 20.452 C 190.329 20.758,189.523 21.133,189.042 21.285 C 187.979 21.620,187.693 22.500,188.646 22.500 C 189.494 22.500,189.578 22.785,189.640 25.888 C 189.719 29.923,189.553 30.667,188.571 30.667 C 188.233 30.667,188.167 30.748,188.167 31.167 L 188.167 31.667 190.917 31.667 L 193.667 31.667 193.667 31.167 C 193.667 30.746,193.601 30.667,193.254 30.667 C 192.402 30.667,192.273 30.136,192.196 26.326 L 192.126 22.863 192.605 22.620 C 195.512 21.148,196.083 21.819,196.083 26.705 C 196.083 30.516,196.044 30.667,195.051 30.667 C 194.735 30.667,194.667 30.755,194.667 31.167 L 194.667 31.667 197.333 31.667 L 200.000 31.667 200.000 31.167 C 200.000 30.789,199.924 30.667,199.687 30.667 C 199.004 30.667,198.921 30.277,198.821 26.600 C 198.716 22.770,198.532 21.839,197.706 20.962 C 196.648 19.839,194.648 20.032,192.689 21.448 L 192.294 21.733 192.356 20.958 C 192.445 19.839,192.055 19.710,190.833 20.452 M214.833 20.451 C 214.329 20.760,213.523 21.127,213.042 21.268 C 211.977 21.579,211.681 22.500,212.646 22.500 C 213.531 22.500,213.583 22.726,213.583 26.508 C 213.583 30.285,213.489 30.667,212.558 30.667 C 212.234 30.667,212.167 30.753,212.167 31.167 L 212.167 31.667 214.917 31.667 L 217.667 31.667 217.667 31.167 C 217.667 30.746,217.601 30.667,217.254 30.667 C 216.389 30.667,216.256 30.120,216.194 26.310 L 216.138 22.855 216.777 22.531 C 219.419 21.193,220.045 21.920,220.123 26.417 C 220.185 29.954,220.106 30.310,219.206 30.576 C 218.765 30.707,218.667 30.820,218.667 31.201 L 218.667 31.667 221.333 31.667 L 224.000 31.667 224.000 31.167 C 224.000 30.789,223.924 30.667,223.687 30.667 C 223.009 30.667,222.921 30.268,222.810 26.683 C 222.732 24.202,222.626 23.006,222.426 22.368 C 221.694 20.034,219.541 19.543,217.148 21.165 C 216.217 21.796,216.237 21.801,216.306 20.931 C 216.392 19.847,216.018 19.725,214.833 20.451 M238.167 20.451 C 237.662 20.760,236.852 21.129,236.365 21.271 C 235.329 21.574,235.108 22.362,236.029 22.468 C 236.875 22.566,236.917 22.761,236.917 26.622 C 236.917 30.525,236.880 30.667,235.885 30.667 C 235.568 30.667,235.500 30.755,235.500 31.167 L 235.500 31.667 238.167 31.667 L 240.833 31.667 240.833 31.167 C 240.833 30.783,240.758 30.667,240.509 30.667 C 239.727 30.667,239.667 30.262,239.667 25.052 C 239.667 19.362,239.713 19.503,238.167 20.451 M310.819 20.247 C 310.506 20.467,309.706 20.849,309.042 21.096 C 307.656 21.611,307.203 22.500,308.327 22.500 C 309.099 22.500,309.167 22.823,309.167 26.535 C 309.167 30.235,309.070 30.667,308.241 30.667 C 307.899 30.667,307.833 30.748,307.833 31.167 L 307.833 31.667 310.500 31.667 L 313.167 31.667 313.167 31.188 C 313.167 30.792,313.082 30.691,312.682 30.611 C 311.876 30.450,311.798 29.899,311.852 24.729 C 311.906 19.552,311.892 19.492,310.819 20.247 M87.229 20.505 C 85.525 21.499,84.287 22.823,84.267 23.672 C 84.235 25.092,85.874 24.488,86.270 22.934 C 86.866 20.596,88.832 21.162,88.965 23.711 L 89.038 25.103 87.561 25.720 C 84.695 26.916,84.161 27.397,84.037 28.891 C 83.804 31.700,86.580 32.974,88.487 30.933 C 88.936 30.453,89.167 30.383,89.167 30.728 C 89.167 31.814,90.933 32.213,92.158 31.403 C 93.170 30.733,93.270 29.878,92.312 30.088 C 91.646 30.234,91.640 30.198,91.610 26.048 C 91.569 20.470,90.219 18.762,87.229 20.505 M96.922 20.500 C 96.466 20.769,95.735 21.080,95.297 21.192 C 94.385 21.426,94.052 22.330,94.875 22.336 C 95.730 22.342,95.746 22.407,95.801 26.126 C 95.857 30.009,95.778 30.453,95.003 30.608 C 94.583 30.692,94.500 30.788,94.500 31.188 L 94.500 31.667 97.250 31.667 L 100.000 31.667 100.000 31.167 C 100.000 30.744,99.935 30.667,99.583 30.667 C 98.535 30.667,98.246 29.638,98.371 26.358 C 98.492 23.169,98.873 22.569,100.642 22.778 C 101.386 22.866,101.486 22.838,101.676 22.483 C 102.994 20.021,100.488 19.204,98.974 21.603 L 98.417 22.486 98.333 21.286 C 98.234 19.863,98.116 19.797,96.922 20.500 M154.654 20.634 C 152.550 22.029,151.571 23.161,151.698 24.054 C 151.828 24.962,153.604 24.203,153.769 23.169 C 154.080 21.225,155.989 20.985,156.501 22.826 C 156.893 24.238,156.732 25.120,156.042 25.339 C 154.639 25.784,152.392 27.006,151.991 27.541 C 151.162 28.648,151.554 31.008,152.661 31.581 C 153.705 32.121,156.333 31.469,156.333 30.670 C 156.333 30.318,156.634 30.519,156.836 31.006 C 157.327 32.192,158.930 32.166,160.285 30.951 C 160.806 30.484,160.532 29.984,159.786 30.042 L 159.250 30.083 159.161 26.083 C 159.069 21.915,159.013 21.582,158.275 20.790 C 157.335 19.781,156.025 19.725,154.654 20.634 M205.202 20.413 C 203.086 21.622,202.000 22.815,202.000 23.929 C 202.000 25.057,203.661 24.360,203.979 23.098 C 204.674 20.336,206.824 21.283,206.831 24.356 L 206.833 25.128 205.233 25.761 C 202.055 27.019,201.205 28.189,201.915 30.328 C 202.500 32.090,204.606 32.421,206.218 31.005 C 206.753 30.536,206.816 30.517,206.906 30.798 C 207.322 32.110,209.087 32.233,210.368 31.039 C 210.943 30.502,210.754 29.930,210.059 30.104 C 209.389 30.273,209.339 30.006,209.335 26.250 C 209.333 24.252,209.254 22.470,209.150 22.097 C 208.629 20.221,206.858 19.466,205.202 20.413 M245.888 20.498 C 244.266 21.428,242.833 22.974,242.833 23.795 C 242.833 25.125,244.543 24.446,244.914 22.968 C 245.545 20.457,247.667 21.295,247.667 24.054 L 247.667 25.119 246.125 25.755 C 243.306 26.917,242.668 27.539,242.667 29.130 C 242.665 31.813,245.125 32.839,247.095 30.977 L 247.606 30.493 248.012 31.122 C 248.886 32.475,252.238 31.545,251.494 30.156 C 251.351 29.887,251.272 29.869,250.999 30.039 C 250.378 30.427,250.310 30.061,250.279 26.146 C 250.235 20.460,248.915 18.762,245.888 20.498 M290.591 20.583 C 290.046 20.894,289.314 21.197,288.966 21.256 C 288.174 21.390,287.974 22.333,288.738 22.333 C 289.617 22.333,289.667 22.553,289.667 26.429 C 289.667 30.294,289.579 30.667,288.667 30.667 C 288.407 30.667,288.333 30.778,288.333 31.167 L 288.333 31.667 291.083 31.667 L 293.833 31.667 293.833 31.167 C 293.833 30.744,293.769 30.667,293.417 30.667 C 292.394 30.667,292.000 29.089,292.231 25.923 C 292.440 23.057,292.639 22.750,294.279 22.750 C 295.551 22.750,295.848 22.465,295.884 21.214 C 295.935 19.422,293.468 20.032,292.570 22.034 L 292.250 22.747 292.167 21.417 C 292.067 19.826,291.990 19.786,290.591 20.583 M112.417 20.444 C 109.978 21.729,109.965 24.423,112.387 26.553 C 114.855 28.723,115.248 29.562,114.241 30.509 C 113.234 31.455,111.780 30.771,111.314 29.132 C 110.995 28.011,110.026 27.720,110.230 28.806 C 110.275 29.050,110.360 29.683,110.419 30.211 C 110.558 31.470,111.022 31.713,113.333 31.735 C 117.275 31.772,118.423 27.987,115.287 25.289 C 113.040 23.355,112.668 22.790,113.023 21.855 C 113.548 20.475,115.034 20.793,115.651 22.418 C 116.234 23.953,117.032 22.812,116.595 21.069 C 116.392 20.260,113.567 19.837,112.417 20.444 M229.274 20.426 C 223.804 22.432,224.608 31.833,230.250 31.833 C 232.120 31.833,234.736 30.173,234.422 29.185 C 234.276 28.724,234.176 28.738,233.186 29.353 C 230.482 31.034,228.248 29.068,228.252 25.009 C 228.256 21.341,230.255 20.066,232.089 22.562 C 232.683 23.369,233.243 23.514,233.794 23.001 C 235.337 21.563,231.748 19.519,229.274 20.426 M281.382 20.518 C 277.418 22.042,277.073 29.748,280.888 31.559 C 283.012 32.567,287.653 30.684,286.598 29.242 C 286.381 28.945,286.341 28.941,286.057 29.190 C 283.637 31.315,280.833 29.226,280.833 25.298 L 280.833 24.500 283.661 24.500 C 286.893 24.500,286.967 24.466,286.743 23.113 C 286.357 20.782,283.850 19.569,281.382 20.518 M318.211 20.519 C 314.017 22.131,313.582 29.706,317.580 31.521 C 319.296 32.301,321.505 31.794,322.975 30.282 C 324.178 29.045,323.787 28.461,322.353 29.353 C 320.595 30.446,319.118 30.101,318.214 28.387 C 315.921 24.036,318.587 18.930,321.256 22.562 C 321.854 23.376,322.466 23.534,322.990 23.010 C 324.551 21.449,320.834 19.511,318.211 20.519 M327.897 20.512 C 322.825 22.463,323.885 31.839,329.178 31.832 C 330.818 31.830,333.365 30.521,333.328 29.700 C 333.308 29.256,332.829 28.952,332.544 29.202 C 330.097 31.348,327.819 29.668,327.250 25.296 L 327.147 24.508 330.115 24.462 L 333.083 24.417 333.137 23.757 C 333.354 21.098,330.679 19.442,327.897 20.512 M336.917 20.444 C 334.514 21.710,334.492 24.503,336.868 26.529 C 338.888 28.251,339.167 28.600,339.167 29.409 C 339.167 31.612,336.456 31.389,335.814 29.132 C 335.338 27.460,334.675 27.806,334.866 29.626 C 335.046 31.334,334.986 31.247,336.220 31.582 C 341.093 32.900,343.509 28.509,339.720 25.222 C 337.944 23.681,337.502 23.182,337.480 22.696 C 337.386 20.568,339.378 20.359,340.153 22.417 C 340.663 23.772,341.070 23.589,341.132 21.976 L 341.180 20.703 340.394 20.435 C 339.385 20.091,337.577 20.096,336.917 20.444 M296.081 20.805 C 296.128 20.927,296.167 21.125,296.167 21.243 C 296.167 21.362,296.380 21.548,296.641 21.656 C 297.369 21.957,298.079 23.539,300.555 30.374 C 300.990 31.575,301.145 31.832,301.433 31.833 C 301.841 31.833,301.760 32.005,303.843 26.750 C 305.598 22.320,305.812 21.923,306.592 21.641 C 307.042 21.478,307.167 21.341,307.167 21.008 L 307.167 20.583 305.000 20.583 L 302.833 20.583 302.833 21.007 C 302.833 21.342,302.948 21.465,303.375 21.591 C 304.239 21.845,304.190 22.509,303.109 25.267 C 302.591 26.587,302.160 27.476,302.106 27.333 C 301.849 26.656,300.518 22.868,300.418 22.530 C 300.283 22.075,300.716 21.500,301.192 21.500 C 301.417 21.500,301.500 21.376,301.500 21.042 L 301.500 20.583 298.748 20.583 C 296.525 20.583,296.013 20.626,296.081 20.805 M391.377 21.083 C 390.408 21.549,390.015 22.000,390.577 22.000 C 390.998 22.000,391.167 22.595,391.167 24.077 L 391.167 25.509 390.675 25.254 C 388.904 24.339,387.081 26.076,387.094 28.666 C 387.108 31.355,388.740 32.637,390.568 31.395 L 391.214 30.956 391.126 31.416 L 391.038 31.875 391.894 31.772 C 392.365 31.716,392.881 31.669,393.042 31.668 C 393.222 31.667,393.333 31.539,393.333 31.333 C 393.333 31.150,393.229 31.000,393.101 31.000 C 392.694 31.000,392.657 30.544,392.672 25.618 C 392.680 22.960,392.625 20.740,392.551 20.684 C 392.477 20.628,391.949 20.807,391.377 21.083 M283.934 21.752 C 284.261 22.079,284.342 22.309,284.302 22.794 L 284.250 23.417 282.625 23.464 C 280.807 23.518,280.757 23.479,281.272 22.394 C 281.783 21.318,283.166 20.984,283.934 21.752 M330.434 21.752 C 330.761 22.079,330.842 22.309,330.802 22.794 L 330.750 23.417 329.048 23.464 L 327.347 23.512 327.534 22.964 C 328.081 21.368,329.470 20.788,330.434 21.752 M349.500 21.564 C 349.500 21.691,349.649 21.833,349.831 21.881 C 350.402 22.030,350.500 22.719,350.498 26.553 C 350.495 30.688,350.459 30.962,349.897 31.103 C 348.789 31.381,349.517 31.667,351.333 31.667 C 353.150 31.667,353.878 31.381,352.770 31.103 C 352.202 30.961,352.171 30.706,352.169 26.106 L 352.167 21.963 352.792 22.077 C 354.875 22.458,355.365 25.985,353.432 26.684 C 352.883 26.882,352.694 27.138,352.925 27.369 C 353.102 27.546,354.423 27.145,355.020 26.734 C 356.700 25.576,356.685 22.455,354.995 21.581 C 354.322 21.233,349.500 21.218,349.500 21.564 M374.833 21.547 C 374.833 21.664,375.047 21.841,375.308 21.939 C 375.951 22.182,376.000 22.528,375.998 26.729 C 375.995 30.490,375.896 31.037,375.204 31.137 C 375.000 31.166,374.833 31.297,374.833 31.428 C 374.833 31.627,375.394 31.667,378.220 31.667 L 381.606 31.667 381.888 30.458 C 382.283 28.770,382.033 28.315,381.444 29.651 C 381.061 30.518,380.490 30.859,379.255 30.958 C 377.617 31.090,377.667 31.235,377.667 26.307 L 377.667 22.138 378.167 21.949 C 379.241 21.543,378.758 21.333,376.750 21.333 C 375.303 21.333,374.833 21.386,374.833 21.547 M364.852 23.995 C 364.646 24.450,364.272 24.995,364.021 25.206 C 363.361 25.762,363.241 26.167,363.737 26.167 L 364.131 26.167 364.043 27.892 C 363.860 31.474,364.677 32.612,366.686 31.574 C 367.340 31.235,367.226 30.906,366.476 30.970 C 365.651 31.041,365.500 30.605,365.500 28.159 L 365.500 26.167 366.250 26.167 C 366.662 26.167,367.000 26.098,367.000 26.014 C 367.000 25.929,367.046 25.742,367.101 25.597 C 367.185 25.378,367.058 25.333,366.347 25.333 L 365.491 25.333 365.602 24.250 C 365.742 22.880,365.407 22.766,364.852 23.995 M384.093 24.079 C 383.847 24.581,383.426 25.149,383.156 25.341 C 382.593 25.742,382.513 26.167,383.000 26.167 C 383.317 26.167,383.333 26.278,383.333 28.425 C 383.333 31.393,383.541 31.833,384.939 31.833 C 385.256 31.833,385.735 31.720,386.003 31.582 C 386.635 31.255,386.506 30.866,385.800 30.969 C 384.957 31.093,384.833 30.751,384.833 28.301 L 384.833 26.167 385.583 26.167 C 385.996 26.167,386.333 26.098,386.333 26.014 C 386.333 25.929,386.379 25.742,386.434 25.597 C 386.519 25.378,386.392 25.333,385.684 25.333 L 384.833 25.333 384.833 24.250 C 384.833 22.928,384.674 22.891,384.093 24.079 M356.500 25.542 C 356.500 25.702,356.603 25.833,356.730 25.833 C 357.122 25.833,357.341 26.248,358.417 29.041 C 359.004 30.561,359.554 31.750,359.673 31.750 C 359.789 31.750,360.349 30.574,360.929 29.110 C 361.964 26.500,362.339 25.833,362.776 25.833 C 362.899 25.833,363.000 25.702,363.000 25.542 C 363.000 25.290,362.829 25.250,361.750 25.250 C 360.495 25.250,359.923 25.644,360.833 25.882 C 361.250 25.991,361.254 26.356,360.847 27.417 C 360.672 27.875,360.443 28.472,360.338 28.744 C 360.100 29.362,359.996 29.219,359.407 27.462 C 358.974 26.172,358.978 25.833,359.427 25.833 C 359.559 25.833,359.667 25.702,359.667 25.542 C 359.667 25.284,359.480 25.250,358.083 25.250 C 356.687 25.250,356.500 25.284,356.500 25.542 M390.875 26.500 C 391.385 27.521,391.293 30.243,390.737 30.607 C 389.276 31.565,387.901 28.031,389.052 26.275 C 389.512 25.573,390.471 25.691,390.875 26.500 M156.605 29.420 C 156.271 30.291,154.599 30.278,154.233 29.402 C 153.741 28.224,154.173 27.422,155.750 26.588 L 156.583 26.148 156.632 27.686 C 156.658 28.533,156.646 29.313,156.605 29.420 M206.833 27.814 C 206.833 29.629,206.695 29.869,205.517 30.105 C 204.416 30.325,203.794 28.225,204.708 27.377 C 205.025 27.084,206.590 26.167,206.775 26.167 C 206.807 26.167,206.833 26.908,206.833 27.814 M89.000 27.913 C 89.000 29.368,88.970 29.511,88.625 29.735 C 87.465 30.485,86.500 29.980,86.500 28.623 C 86.500 27.731,86.696 27.450,87.755 26.827 C 88.992 26.099,89.000 26.106,89.000 27.913 M247.667 27.913 C 247.667 29.629,247.564 29.819,246.493 30.081 C 244.715 30.518,244.657 27.865,246.421 26.827 C 247.658 26.099,247.667 26.106,247.667 27.913 M368.276 29.971 C 367.910 30.376,367.925 31.214,368.305 31.558 C 368.960 32.150,369.833 31.672,369.833 30.721 C 369.833 29.810,368.850 29.336,368.276 29.971 M395.067 29.790 C 394.336 30.294,394.484 31.573,395.297 31.777 C 396.153 31.991,396.783 31.021,396.323 30.197 C 396.072 29.749,395.429 29.540,395.067 29.790 " stroke="none" fill="#1e1c16" fill-rule="evenodd"></path><path id="path1" d="M0.000 20.167 L 0.000 40.333 200.000 40.333 L 400.000 40.333 400.000 20.167 L 400.000 0.000 200.000 0.000 L 0.000 0.000 0.000 20.167 M34.417 1.417 C 34.875 1.471,35.438 1.578,35.667 1.655 C 35.896 1.733,36.402 1.882,36.791 1.988 C 37.420 2.158,39.356 3.893,41.115 5.861 C 41.224 5.983,41.543 6.302,41.823 6.569 C 42.874 7.571,42.594 7.823,40.542 7.722 C 38.789 7.636,35.987 8.052,34.250 8.656 C 33.975 8.752,33.619 8.877,33.458 8.935 C 33.298 8.992,33.167 9.114,33.167 9.206 C 33.167 9.297,33.018 9.333,32.835 9.286 C 32.647 9.236,32.330 9.336,32.101 9.516 C 31.879 9.691,31.650 9.833,31.592 9.833 C 31.235 9.833,30.508 10.595,30.597 10.876 C 30.684 11.151,30.629 11.175,30.129 11.081 C 29.717 11.004,29.502 11.047,29.344 11.237 C 29.224 11.382,29.038 11.500,28.930 11.500 C 28.822 11.500,28.286 11.856,27.740 12.292 C 27.194 12.727,26.462 13.297,26.113 13.558 C 24.820 14.527,21.679 17.661,21.360 18.301 C 21.237 18.548,20.899 18.901,20.610 19.086 C 20.227 19.330,20.069 19.568,20.031 19.961 C 19.977 20.518,20.126 20.640,20.457 20.309 C 20.601 20.166,20.678 20.236,20.766 20.590 C 20.832 20.849,21.061 21.320,21.276 21.637 C 21.491 21.954,21.667 22.270,21.667 22.340 C 21.667 22.563,22.572 22.792,22.928 22.661 C 23.117 22.591,24.237 22.446,25.418 22.340 C 28.115 22.096,29.076 21.914,29.876 21.497 C 30.225 21.315,30.696 21.167,30.924 21.167 C 31.152 21.167,31.468 21.098,31.627 21.015 C 31.786 20.932,32.512 20.701,33.239 20.502 C 34.059 20.278,34.785 19.956,35.152 19.654 C 35.477 19.386,35.873 19.167,36.032 19.167 C 36.447 19.167,36.744 18.546,36.790 17.583 C 36.812 17.125,36.874 16.157,36.929 15.431 C 37.012 14.331,36.984 14.088,36.764 13.965 C 36.619 13.883,36.500 13.631,36.500 13.405 C 36.500 13.138,36.366 12.932,36.120 12.820 C 35.778 12.664,35.740 12.533,35.745 11.531 L 35.750 10.417 36.500 10.302 C 36.999 10.226,37.445 10.266,37.833 10.421 C 38.154 10.549,38.727 10.733,39.106 10.828 C 39.484 10.924,39.887 11.114,40.001 11.251 C 40.115 11.388,40.310 11.500,40.435 11.500 C 41.208 11.500,41.973 14.371,42.087 17.702 C 42.149 19.512,42.192 19.334,41.138 21.618 C 40.677 22.615,39.860 23.433,38.900 23.858 C 38.486 24.041,38.106 24.296,38.057 24.425 C 37.859 24.941,34.360 27.000,33.680 27.000 C 33.579 27.000,33.365 27.070,33.206 27.156 C 32.279 27.658,30.890 28.167,30.450 28.167 C 29.756 28.167,28.833 28.519,28.833 28.783 C 28.833 28.903,28.909 29.000,29.002 29.000 C 29.094 29.000,29.544 29.262,30.000 29.583 C 30.456 29.904,30.968 30.167,31.136 30.167 C 31.304 30.167,31.618 30.354,31.833 30.583 C 32.050 30.813,32.417 31.002,32.654 31.005 C 32.890 31.008,33.229 31.121,33.407 31.255 C 33.585 31.390,33.976 31.500,34.276 31.500 C 34.651 31.500,34.877 31.604,35.000 31.833 C 35.098 32.017,35.286 32.167,35.417 32.167 C 35.549 32.167,35.945 32.317,36.297 32.501 C 37.441 33.097,40.583 33.401,41.351 32.990 C 41.975 32.657,43.933 32.585,44.051 32.892 C 44.173 33.210,43.327 34.268,41.501 36.081 C 41.226 36.354,41.000 36.677,41.000 36.798 C 41.000 36.918,40.756 37.126,40.458 37.259 C 40.160 37.393,39.467 37.834,38.917 38.240 C 38.367 38.646,37.815 38.983,37.691 38.989 C 37.560 38.995,37.505 39.105,37.560 39.250 C 37.660 39.510,37.169 39.613,36.936 39.380 C 36.870 39.315,35.939 39.283,34.867 39.310 C 33.303 39.350,32.661 39.291,31.628 39.013 C 30.919 38.823,30.013 38.667,29.614 38.667 C 29.021 38.667,28.809 38.577,28.450 38.175 C 28.209 37.904,27.712 37.602,27.346 37.503 C 26.980 37.405,26.636 37.251,26.581 37.162 C 26.525 37.073,26.354 36.999,26.198 36.997 C 26.043 36.996,25.754 36.827,25.556 36.622 C 25.357 36.417,24.581 35.987,23.831 35.667 C 22.967 35.297,22.346 34.915,22.139 34.625 C 21.958 34.373,21.677 34.167,21.514 34.167 C 21.352 34.167,21.083 34.017,20.917 33.833 C 20.751 33.650,20.475 33.500,20.303 33.500 C 20.126 33.500,19.925 33.324,19.837 33.093 C 19.752 32.870,19.523 32.602,19.329 32.498 C 19.134 32.393,18.838 32.183,18.671 32.029 C 18.504 31.876,18.101 31.563,17.775 31.333 C 17.449 31.104,17.053 30.680,16.895 30.390 C 16.496 29.661,14.940 29.353,14.714 29.958 C 14.654 30.119,14.469 30.348,14.303 30.468 C 14.136 30.588,14.000 30.864,14.000 31.082 C 14.000 31.300,13.927 31.671,13.837 31.906 C 13.550 32.661,13.803 33.284,14.603 33.789 C 15.005 34.043,15.333 34.325,15.334 34.417 C 15.337 34.736,16.573 35.316,16.882 35.143 C 17.111 35.015,17.202 35.070,17.334 35.418 C 17.425 35.657,17.566 35.812,17.647 35.762 C 17.728 35.712,17.993 35.828,18.236 36.019 C 18.540 36.258,18.807 36.334,19.089 36.263 C 19.325 36.204,19.500 36.233,19.500 36.330 C 19.500 36.424,19.594 36.503,19.708 36.506 C 19.823 36.509,20.217 36.656,20.583 36.833 C 20.950 37.010,21.409 37.158,21.603 37.161 C 21.796 37.164,22.134 37.304,22.353 37.472 C 22.571 37.639,22.881 37.825,23.042 37.883 C 23.813 38.164,22.838 38.720,21.000 39.046 C 18.239 39.536,13.667 38.852,13.667 37.949 C 13.667 37.832,12.966 37.027,12.110 36.158 C 11.254 35.290,10.523 34.505,10.485 34.414 C 10.448 34.324,10.139 34.109,9.800 33.937 C 9.368 33.717,9.151 33.477,9.076 33.134 C 9.017 32.864,8.869 32.606,8.747 32.559 C 8.625 32.512,8.405 32.236,8.258 31.945 C 8.111 31.655,7.927 31.304,7.849 31.167 C 7.510 30.569,7.333 29.638,7.333 28.451 C 7.333 27.179,7.332 27.174,6.792 26.900 C 6.494 26.748,6.038 26.371,5.780 26.062 C 5.521 25.753,5.216 25.500,5.102 25.500 C 4.988 25.500,4.718 25.181,4.501 24.792 C 4.285 24.402,4.048 24.043,3.975 23.993 C 3.543 23.699,2.976 15.014,3.359 14.552 C 3.601 14.260,3.754 14.002,4.331 12.912 C 4.558 12.481,4.922 12.061,5.138 11.979 C 5.355 11.897,5.567 11.697,5.609 11.534 C 5.652 11.372,5.925 11.134,6.217 11.005 C 7.087 10.619,8.117 9.824,8.350 9.355 C 8.471 9.114,8.997 8.425,9.519 7.824 C 10.041 7.222,10.494 6.553,10.526 6.337 C 10.564 6.073,10.702 5.934,10.943 5.917 C 11.366 5.887,12.167 5.396,12.167 5.167 C 12.167 4.868,15.528 2.486,16.307 2.233 C 16.734 2.094,17.196 1.937,17.333 1.884 C 18.066 1.600,23.474 2.005,23.958 2.380 C 24.660 2.922,23.755 3.833,22.515 3.833 C 22.243 3.833,21.973 3.908,21.917 4.000 C 21.860 4.092,21.593 4.167,21.323 4.167 C 20.999 4.167,20.833 4.251,20.833 4.417 C 20.833 4.596,20.651 4.667,20.191 4.667 C 19.827 4.667,19.211 4.847,18.766 5.083 C 18.335 5.313,17.882 5.500,17.760 5.500 C 17.445 5.500,16.027 6.502,15.003 7.448 C 14.525 7.889,14.029 8.310,13.899 8.384 C 13.730 8.480,13.709 8.602,13.826 8.819 C 13.914 8.984,13.951 9.374,13.906 9.685 C 13.741 10.853,14.786 12.185,15.368 11.547 C 15.723 11.159,18.786 8.079,19.367 7.527 C 19.614 7.292,20.041 6.983,20.316 6.841 C 20.590 6.699,21.243 6.290,21.767 5.932 C 22.291 5.574,22.951 5.234,23.235 5.177 C 23.520 5.120,23.817 4.924,23.899 4.739 C 23.981 4.555,24.356 4.264,24.732 4.093 C 25.109 3.921,26.156 3.417,27.059 2.974 C 27.962 2.530,28.803 2.167,28.928 2.167 C 29.053 2.167,29.514 2.043,29.953 1.893 C 31.156 1.479,32.524 1.205,33.083 1.265 C 33.358 1.294,33.958 1.363,34.417 1.417 M122.567 12.600 C 122.797 12.689,122.815 13.200,122.720 17.100 C 122.661 19.520,122.659 21.500,122.715 21.500 C 122.772 21.500,123.402 21.192,124.116 20.816 C 127.795 18.879,129.333 20.733,129.333 27.106 C 129.333 30.163,129.463 30.667,130.250 30.667 C 130.421 30.667,130.500 30.838,130.500 31.208 L 130.500 31.750 127.750 31.701 L 125.000 31.651 125.000 31.177 C 125.000 30.768,125.079 30.689,125.581 30.595 C 126.481 30.426,126.530 30.192,126.470 26.390 L 126.417 22.971 125.949 22.569 C 125.361 22.063,124.654 22.052,123.501 22.531 L 122.623 22.896 122.700 26.323 C 122.783 30.059,122.872 30.449,123.676 30.610 C 124.083 30.692,124.167 30.790,124.167 31.188 L 124.167 31.667 121.333 31.667 L 118.500 31.667 118.500 31.185 C 118.500 30.770,118.578 30.689,119.065 30.598 C 119.473 30.521,119.683 30.363,119.822 30.028 C 120.034 29.516,120.013 15.624,119.800 15.411 C 119.736 15.347,119.436 15.244,119.133 15.183 C 118.012 14.956,118.275 14.295,119.700 13.764 C 120.369 13.515,121.179 13.133,121.500 12.915 C 122.152 12.473,122.199 12.459,122.567 12.600 M256.976 12.648 C 257.161 12.766,257.197 14.288,257.176 21.203 C 257.149 30.162,257.169 30.411,257.945 30.605 C 258.240 30.679,258.333 30.819,258.333 31.185 L 258.333 31.667 255.667 31.667 L 253.000 31.667 253.000 31.180 C 253.000 30.774,253.084 30.675,253.501 30.583 C 254.341 30.399,254.347 30.341,254.297 22.662 C 254.246 14.908,254.280 15.175,253.364 15.169 C 252.430 15.163,252.966 14.170,254.130 13.749 C 254.706 13.542,255.456 13.180,255.797 12.946 C 256.479 12.477,256.641 12.436,256.976 12.648 M106.885 13.655 C 108.062 14.798,107.036 16.921,105.473 16.577 C 104.075 16.270,103.902 13.917,105.230 13.265 C 105.858 12.957,106.265 13.053,106.885 13.655 M184.875 13.633 C 185.863 14.558,185.297 16.392,183.956 16.609 C 182.271 16.883,181.654 14.039,183.230 13.265 C 183.848 12.962,184.256 13.053,184.875 13.633 M238.935 13.345 C 240.492 14.307,239.678 16.925,237.924 16.596 C 236.373 16.305,236.230 13.770,237.731 13.163 C 238.247 12.955,238.323 12.966,238.935 13.345 M310.998 13.249 C 312.504 14.028,312.261 16.343,310.647 16.605 C 308.994 16.874,308.244 14.224,309.719 13.325 C 310.358 12.936,310.388 12.934,310.998 13.249 M274.333 13.508 C 275.827 13.840,276.000 13.966,276.003 14.729 C 276.005 15.107,276.081 15.934,276.173 16.567 C 276.264 17.199,276.319 17.734,276.295 17.755 C 276.004 18.010,275.154 17.986,275.073 17.722 C 274.274 15.116,272.770 14.097,271.033 14.983 C 268.710 16.168,269.281 18.292,272.585 20.762 C 275.699 23.089,276.348 24.024,276.466 26.357 C 276.686 30.690,272.983 33.188,268.442 31.772 C 266.731 31.239,266.738 31.246,266.505 29.499 C 266.401 28.720,266.246 27.823,266.161 27.505 C 265.983 26.840,266.049 26.744,266.792 26.588 C 267.176 26.507,267.354 26.538,267.402 26.695 C 268.675 30.790,271.090 32.117,273.067 29.808 C 274.591 28.027,273.867 26.237,270.732 24.035 C 267.932 22.068,267.143 20.889,267.143 18.667 C 267.143 14.813,270.232 12.597,274.333 13.508 M74.000 14.292 C 74.000 14.784,73.954 14.833,73.492 14.833 C 72.304 14.833,72.167 15.251,72.167 18.861 C 72.167 21.554,72.203 22.032,72.390 21.827 C 72.513 21.693,73.281 20.734,74.098 19.697 C 74.915 18.659,75.863 17.459,76.204 17.030 C 77.376 15.558,77.377 14.833,76.208 14.833 C 75.866 14.833,75.819 14.764,75.864 14.323 L 75.917 13.813 78.875 13.781 L 81.833 13.750 81.833 14.250 C 81.833 14.715,81.766 14.770,80.866 15.034 C 79.565 15.416,74.965 20.235,75.234 20.934 C 75.280 21.055,76.052 22.225,76.950 23.536 C 77.849 24.846,78.958 26.543,79.417 27.307 C 80.519 29.144,81.574 30.294,82.417 30.576 C 82.945 30.754,83.095 30.893,83.137 31.247 L 83.191 31.694 80.993 31.638 L 78.794 31.583 78.182 30.892 C 77.844 30.512,77.276 29.725,76.918 29.142 C 76.296 28.129,74.188 24.839,73.442 23.715 L 73.087 23.181 72.617 23.631 L 72.147 24.082 72.198 27.056 C 72.256 30.362,72.367 30.667,73.518 30.667 C 73.942 30.667,74.000 30.726,74.000 31.167 L 74.000 31.667 70.583 31.667 L 67.167 31.667 67.167 31.188 C 67.167 30.759,67.235 30.698,67.830 30.603 C 69.006 30.415,69.000 30.456,69.000 22.697 C 69.000 15.026,69.019 15.144,67.743 14.904 C 67.231 14.808,67.167 14.738,67.167 14.273 L 67.167 13.750 70.583 13.750 L 74.000 13.750 74.000 14.292 M179.410 14.833 C 179.461 15.429,179.578 16.375,179.668 16.936 C 179.918 18.476,179.912 18.500,179.271 18.500 C 178.739 18.500,178.703 18.463,178.598 17.792 C 178.286 15.817,177.658 15.317,175.347 15.202 C 173.233 15.097,173.333 14.907,173.333 19.032 L 173.333 22.333 174.542 22.332 C 176.708 22.331,177.597 21.911,177.774 20.805 C 177.865 20.237,177.929 20.167,178.355 20.167 L 178.833 20.167 178.833 23.000 L 178.833 25.833 178.361 25.833 C 177.931 25.833,177.876 25.764,177.736 25.042 C 177.523 23.939,176.957 23.667,174.875 23.667 L 173.333 23.667 173.333 26.505 C 173.333 29.973,173.464 30.437,174.490 30.601 C 175.113 30.701,175.167 30.750,175.167 31.230 L 175.167 31.750 171.834 31.702 L 168.500 31.653 168.500 31.160 C 168.500 30.743,168.565 30.667,168.924 30.667 C 170.273 30.667,170.363 30.129,170.301 22.417 C 170.243 15.270,170.234 15.210,169.125 14.948 C 168.566 14.816,168.500 14.745,168.500 14.275 L 168.500 13.750 173.908 13.750 L 179.316 13.750 179.410 14.833 M6.831 15.125 C 6.705 15.385,6.578 16.376,6.537 17.417 C 6.485 18.764,6.397 19.328,6.206 19.543 C 5.967 19.812,5.978 19.872,6.330 20.247 C 7.061 21.025,8.840 21.276,8.826 20.600 C 8.815 20.091,8.442 18.751,8.236 18.482 C 7.993 18.165,7.667 16.979,7.667 16.417 C 7.667 15.861,7.326 14.667,7.167 14.667 C 7.105 14.667,6.953 14.873,6.831 15.125 M89.942 20.155 C 90.436 20.379,90.771 20.701,91.109 21.276 L 91.583 22.083 91.667 26.000 L 91.750 29.917 92.266 29.878 C 93.062 29.818,93.304 30.476,92.696 31.045 C 91.345 32.308,89.825 32.299,89.171 31.025 L 88.970 30.633 88.527 31.047 C 86.562 32.884,84.138 32.043,83.891 29.440 C 83.723 27.666,84.615 26.776,87.790 25.549 L 88.996 25.083 88.997 24.250 C 89.001 21.430,87.150 20.567,86.335 23.008 C 85.903 24.303,84.576 25.099,84.157 24.315 C 83.807 23.661,84.381 22.610,85.641 21.596 C 87.826 19.837,88.641 19.564,89.942 20.155 M98.159 20.034 C 98.441 20.210,98.470 20.370,98.389 21.326 L 98.296 22.417 98.789 21.667 C 100.274 19.411,102.753 19.683,101.979 22.017 C 101.700 22.858,101.426 23.005,100.350 22.893 C 98.796 22.731,98.501 23.414,98.503 27.167 C 98.505 29.889,98.629 30.330,99.461 30.576 C 99.902 30.707,100.000 30.820,100.000 31.201 L 100.000 31.667 97.167 31.667 L 94.333 31.667 94.333 31.167 C 94.333 30.788,94.409 30.667,94.648 30.667 C 95.690 30.667,96.171 27.569,95.721 23.750 L 95.583 22.583 95.000 22.500 C 94.013 22.359,94.097 21.177,95.094 21.169 C 95.440 21.167,97.263 20.303,97.570 19.997 C 97.775 19.792,97.772 19.792,98.159 20.034 M107.153 19.988 C 107.350 20.113,107.383 20.932,107.350 24.861 C 107.305 30.069,107.359 30.447,108.164 30.608 C 108.583 30.692,108.667 30.788,108.667 31.188 L 108.667 31.667 105.917 31.667 L 103.167 31.667 103.167 31.167 C 103.167 30.778,103.241 30.667,103.500 30.667 C 104.404 30.667,104.500 30.277,104.500 26.597 C 104.500 22.719,104.499 22.713,103.734 22.569 C 103.142 22.458,102.872 21.592,103.375 21.417 C 104.789 20.926,105.563 20.588,106.026 20.258 C 106.653 19.813,106.815 19.774,107.153 19.988 M136.141 20.052 C 136.248 20.181,136.279 20.538,136.217 20.923 L 136.111 21.575 136.562 21.279 C 138.948 19.716,141.239 19.898,141.877 21.702 C 141.933 21.858,142.084 21.815,142.435 21.542 C 144.450 19.972,145.849 19.783,147.427 20.864 C 148.471 21.579,148.563 21.984,148.661 26.305 C 148.757 30.487,148.799 30.667,149.699 30.667 C 149.922 30.667,150.000 30.795,150.000 31.167 L 150.000 31.667 147.250 31.667 L 144.500 31.667 144.500 31.167 C 144.500 30.788,144.576 30.667,144.815 30.667 C 145.793 30.667,145.857 30.393,145.801 26.462 C 145.752 22.959,145.738 22.830,145.373 22.465 C 144.846 21.939,143.929 21.988,143.016 22.593 L 142.305 23.063 142.361 26.407 C 142.422 29.986,142.513 30.413,143.255 30.599 C 143.574 30.680,143.667 30.811,143.667 31.185 L 143.667 31.667 141.000 31.667 L 138.333 31.667 138.333 31.167 C 138.333 30.784,138.409 30.667,138.655 30.667 C 139.478 30.667,139.667 29.996,139.667 27.069 C 139.667 22.364,139.183 21.560,136.881 22.439 L 136.167 22.712 136.167 26.344 L 136.167 29.976 136.606 30.321 C 136.847 30.511,137.147 30.667,137.272 30.667 C 137.414 30.667,137.500 30.855,137.500 31.167 L 137.500 31.667 134.750 31.667 L 132.000 31.667 132.000 31.188 C 132.000 30.790,132.084 30.692,132.491 30.610 C 133.339 30.440,133.417 30.085,133.417 26.362 C 133.417 22.655,133.375 22.500,132.374 22.500 C 131.424 22.500,131.957 21.471,133.083 21.131 C 133.633 20.965,134.383 20.611,134.750 20.345 C 135.492 19.806,135.870 19.726,136.141 20.052 M157.291 20.090 C 159.027 20.815,159.241 21.439,159.285 25.917 C 159.305 27.933,159.324 29.686,159.327 29.813 C 159.332 29.977,159.473 30.014,159.830 29.942 C 160.970 29.714,160.898 30.755,159.722 31.500 C 158.360 32.365,156.667 31.924,156.667 30.705 C 156.667 30.506,156.524 30.570,156.125 30.949 C 154.054 32.914,151.500 31.971,151.500 29.241 C 151.500 27.571,152.151 26.881,154.739 25.811 L 156.497 25.083 156.498 23.917 C 156.500 21.375,154.281 20.599,153.896 23.006 C 153.721 24.103,152.012 25.159,151.750 24.333 C 151.404 23.244,152.706 21.638,154.954 20.377 C 156.039 19.769,156.413 19.723,157.291 20.090 M185.144 19.983 C 185.329 20.100,185.367 21.019,185.344 24.863 C 185.314 29.924,185.378 30.421,186.077 30.597 C 186.408 30.680,186.500 30.808,186.500 31.185 L 186.500 31.667 183.833 31.667 L 181.167 31.667 181.167 31.180 C 181.167 30.774,181.250 30.675,181.668 30.583 C 182.439 30.414,182.500 30.117,182.500 26.525 C 182.500 22.718,182.499 22.713,181.725 22.568 C 180.665 22.369,180.977 21.559,182.297 21.083 C 182.873 20.875,183.623 20.513,183.964 20.279 C 184.647 19.810,184.808 19.769,185.144 19.983 M192.244 20.058 C 192.484 20.234,192.530 20.417,192.453 20.892 C 192.333 21.630,192.259 21.630,193.487 20.898 C 195.587 19.647,197.357 19.964,198.250 21.750 C 198.747 22.745,198.750 22.768,198.833 26.258 C 198.920 29.920,199.076 30.667,199.754 30.667 C 199.916 30.667,200.000 30.837,200.000 31.167 L 200.000 31.667 197.333 31.667 L 194.667 31.667 194.667 31.167 C 194.667 30.788,194.743 30.667,194.982 30.667 C 195.960 30.667,196.023 30.396,195.968 26.442 C 195.905 21.951,195.484 21.387,193.030 22.501 L 192.310 22.828 192.363 26.429 C 192.421 30.334,192.512 30.667,193.518 30.667 C 193.757 30.667,193.833 30.788,193.833 31.167 L 193.833 31.667 191.000 31.667 L 188.167 31.667 188.167 31.188 C 188.167 30.790,188.251 30.692,188.658 30.610 C 189.431 30.455,189.565 30.003,189.637 27.285 C 189.740 23.440,189.531 22.500,188.571 22.500 C 188.124 22.500,187.954 21.563,188.375 21.417 C 189.789 20.926,190.563 20.588,191.026 20.258 C 191.689 19.787,191.839 19.762,192.244 20.058 M207.757 20.190 C 209.176 20.885,209.536 22.229,209.493 26.667 C 209.456 30.371,209.407 30.060,210.005 29.941 C 210.707 29.800,211.059 30.474,210.568 31.017 C 209.392 32.317,207.268 32.258,206.931 30.916 L 206.825 30.494 206.371 30.925 C 204.369 32.824,201.947 32.107,201.715 29.547 C 201.545 27.672,202.265 26.861,205.095 25.741 L 206.698 25.107 206.641 23.737 C 206.540 21.340,204.571 20.709,204.080 22.917 C 204.019 23.192,203.939 23.530,203.902 23.670 C 203.777 24.142,202.403 24.765,202.079 24.496 C 201.162 23.735,202.831 21.581,205.417 20.189 C 206.144 19.797,206.957 19.798,207.757 20.190 M216.196 20.016 C 216.483 20.169,216.521 20.303,216.433 20.849 C 216.336 21.461,216.509 21.723,216.752 21.330 C 217.073 20.810,218.611 20.260,219.757 20.255 C 222.222 20.244,222.695 21.184,222.826 26.358 C 222.921 30.132,223.039 30.667,223.776 30.667 C 223.914 30.667,224.000 30.859,224.000 31.167 L 224.000 31.667 221.333 31.667 L 218.667 31.667 218.667 31.180 C 218.667 30.774,218.750 30.675,219.168 30.583 C 219.934 30.415,220.000 30.109,220.000 26.702 C 220.000 22.087,219.482 21.383,216.921 22.515 L 216.132 22.864 216.204 26.140 C 216.290 30.061,216.455 30.657,217.458 30.664 C 217.763 30.666,217.833 30.760,217.833 31.167 L 217.833 31.667 215.000 31.667 L 212.167 31.667 212.167 31.188 C 212.167 30.788,212.250 30.692,212.669 30.608 C 213.397 30.462,213.537 29.945,213.627 27.068 C 213.737 23.544,213.491 22.509,212.542 22.503 C 211.861 22.498,212.009 21.400,212.708 21.269 C 213.366 21.145,215.249 20.271,215.406 20.017 C 215.550 19.785,215.765 19.785,216.196 20.016 M239.500 19.996 C 239.715 20.132,239.742 20.800,239.691 24.730 C 239.626 29.737,239.712 30.421,240.430 30.601 C 240.740 30.679,240.833 30.814,240.833 31.185 L 240.833 31.667 238.167 31.667 L 235.500 31.667 235.500 31.188 C 235.500 30.790,235.584 30.692,235.991 30.610 C 236.827 30.443,236.917 30.063,236.917 26.667 C 236.917 22.959,236.868 22.720,236.082 22.572 C 235.476 22.458,235.197 21.595,235.708 21.417 C 237.122 20.926,237.896 20.588,238.360 20.258 C 238.991 19.809,239.147 19.773,239.500 19.996 M248.609 20.155 C 249.102 20.379,249.438 20.701,249.776 21.276 L 250.250 22.083 250.333 26.000 L 250.417 29.917 250.888 29.917 C 251.636 29.917,251.931 30.457,251.458 30.964 C 250.258 32.250,248.523 32.338,247.905 31.145 L 247.641 30.633 247.279 30.966 C 245.094 32.973,242.604 32.018,242.589 29.167 C 242.580 27.430,243.280 26.767,246.382 25.576 L 247.663 25.083 247.664 24.250 C 247.668 21.416,245.656 20.550,244.955 23.083 C 244.753 23.812,244.628 23.968,243.962 24.326 C 242.046 25.355,242.313 23.151,244.295 21.572 C 246.446 19.858,247.322 19.571,248.609 20.155 M292.223 21.407 L 292.138 22.583 292.633 21.750 C 293.495 20.298,294.863 19.689,295.653 20.405 C 295.825 20.560,295.992 20.626,296.024 20.552 C 296.057 20.478,297.302 20.439,298.792 20.466 L 301.500 20.516 301.500 20.992 C 301.500 21.370,301.398 21.503,301.000 21.642 C 300.311 21.882,300.343 22.195,301.333 24.933 C 301.792 26.200,302.170 27.277,302.174 27.326 C 302.187 27.472,302.956 25.528,303.751 23.343 C 304.096 22.395,303.963 21.861,303.327 21.640 C 302.921 21.498,302.833 21.374,302.833 20.942 L 302.833 20.417 304.958 20.468 C 306.127 20.496,307.149 20.584,307.229 20.664 C 307.528 20.960,307.187 21.621,306.686 21.721 C 305.944 21.870,305.636 22.448,303.676 27.367 C 301.429 33.005,301.439 32.997,300.382 30.132 C 297.734 22.951,297.359 22.108,296.647 21.740 C 296.055 21.433,296.109 21.404,295.776 22.208 C 295.493 22.892,295.518 22.881,294.095 22.902 C 292.548 22.925,292.417 23.249,292.417 27.056 C 292.417 30.321,292.530 30.667,293.602 30.667 C 293.933 30.667,294.000 30.751,294.000 31.167 L 294.000 31.667 291.167 31.667 L 288.333 31.667 288.333 31.167 C 288.333 30.827,288.416 30.667,288.591 30.667 C 289.515 30.667,289.667 30.078,289.667 26.497 C 289.667 22.815,289.600 22.500,288.817 22.500 C 287.881 22.500,288.176 21.346,289.177 21.093 C 289.596 20.987,290.344 20.671,290.841 20.390 C 292.114 19.671,292.337 19.835,292.223 21.407 M311.794 20.014 C 312.060 20.180,312.080 20.589,312.037 25.016 C 311.987 30.122,312.025 30.416,312.755 30.599 C 313.074 30.680,313.167 30.811,313.167 31.185 L 313.167 31.667 310.500 31.667 L 307.833 31.667 307.833 31.167 C 307.833 30.827,307.916 30.667,308.091 30.667 C 309.002 30.667,309.167 30.058,309.167 26.685 C 309.167 23.148,309.078 22.707,308.336 22.559 C 307.410 22.374,307.610 21.454,308.634 21.191 C 309.074 21.078,309.843 20.733,310.342 20.423 C 311.383 19.778,311.405 19.771,311.794 20.014 M115.100 20.182 C 116.526 20.430,116.610 20.526,116.738 22.042 L 116.847 23.333 116.367 23.333 C 115.953 23.333,115.859 23.243,115.693 22.689 C 115.263 21.255,114.143 20.690,113.333 21.500 C 112.589 22.244,113.029 23.272,114.653 24.584 C 119.289 28.330,116.966 33.315,111.388 31.594 C 110.427 31.298,110.435 31.314,110.238 29.292 L 110.128 28.167 110.626 28.167 C 111.072 28.167,111.145 28.243,111.329 28.901 C 111.806 30.604,112.703 31.195,113.926 30.612 C 115.221 29.995,114.825 28.704,112.849 27.101 C 108.771 23.794,110.223 19.333,115.100 20.182 M340.494 20.392 C 341.127 20.600,341.303 21.071,341.324 22.625 C 341.338 23.654,340.497 23.702,340.193 22.689 C 339.763 21.255,338.643 20.690,337.833 21.500 C 337.040 22.293,337.456 23.186,339.346 24.750 C 343.752 28.395,341.382 33.216,335.978 31.602 C 334.932 31.289,334.943 31.309,334.734 29.277 L 334.625 28.211 335.131 28.136 C 335.585 28.070,335.648 28.115,335.739 28.569 C 336.243 31.092,339.167 31.802,339.167 29.400 C 339.167 28.744,339.329 28.934,336.459 26.237 C 333.062 23.046,335.927 18.894,340.494 20.392 M232.953 20.691 C 234.050 21.253,234.526 22.097,234.107 22.737 C 233.463 23.720,232.629 23.628,231.915 22.498 C 230.053 19.548,227.463 22.644,228.468 26.619 C 229.271 29.796,230.857 30.689,233.164 29.265 C 233.727 28.917,234.211 28.659,234.238 28.691 C 235.208 29.830,232.568 32.005,230.226 31.996 C 224.547 31.975,223.793 22.129,229.332 20.312 C 230.138 20.048,232.098 20.253,232.953 20.691 M285.221 20.724 C 286.305 21.360,286.690 21.980,286.793 23.258 C 286.903 24.633,286.822 24.667,283.406 24.667 L 280.833 24.667 280.833 25.220 C 280.833 28.744,283.009 30.767,285.430 29.493 L 286.394 28.986 286.738 29.338 L 287.083 29.690 286.211 30.499 C 281.760 34.624,276.499 29.777,278.590 23.479 C 279.538 20.626,282.765 19.285,285.221 20.724 M321.398 20.403 C 323.107 20.917,323.953 22.137,323.143 22.920 C 322.282 23.751,321.946 23.636,320.790 22.118 C 319.152 19.966,316.991 22.442,317.485 25.904 C 317.986 29.418,319.916 30.756,322.331 29.265 C 323.309 28.662,323.366 28.647,323.589 28.941 C 323.923 29.382,323.908 29.427,323.143 30.257 C 319.803 33.879,314.677 31.522,314.668 26.359 C 314.661 22.139,317.834 19.330,321.398 20.403 M331.790 20.768 C 332.723 21.339,333.335 22.388,333.331 23.410 C 333.326 24.584,333.343 24.577,330.151 24.636 L 327.290 24.689 327.400 25.770 C 327.795 29.621,329.723 30.914,332.456 29.161 C 332.795 28.944,332.864 28.958,333.206 29.306 L 333.583 29.690 332.711 30.499 C 328.813 34.111,323.935 30.908,324.651 25.206 C 325.162 21.136,328.747 18.907,331.790 20.768 M392.693 25.252 C 392.632 30.200,392.681 30.763,393.183 30.922 C 393.940 31.162,393.533 31.612,392.389 31.801 C 391.225 31.994,391.000 31.960,391.000 31.588 C 391.000 31.414,390.809 31.443,390.176 31.710 C 388.389 32.465,387.000 31.192,387.000 28.799 C 387.000 26.117,388.669 24.445,390.655 25.138 L 391.167 25.316 391.167 24.515 C 391.167 22.983,390.985 22.167,390.644 22.167 C 389.950 22.167,390.278 21.422,391.077 21.187 C 391.485 21.066,391.910 20.859,392.020 20.726 C 392.686 19.923,392.753 20.371,392.693 25.252 M355.167 21.589 C 357.454 22.919,356.318 27.007,353.542 27.434 C 352.592 27.580,352.450 26.848,353.375 26.576 C 355.322 26.003,354.720 22.167,352.683 22.167 L 352.167 22.167 352.167 25.979 C 352.167 30.488,352.211 30.816,352.859 31.061 C 354.004 31.493,353.434 31.750,351.333 31.750 C 349.233 31.750,348.663 31.493,349.807 31.061 C 350.425 30.828,350.506 30.246,350.480 26.268 C 350.457 22.676,350.400 22.326,349.790 22.034 C 349.539 21.914,349.333 21.688,349.334 21.533 C 349.334 21.065,354.349 21.114,355.167 21.589 M378.750 21.603 C 378.750 21.782,378.609 21.937,378.417 21.970 C 377.718 22.092,377.667 22.384,377.667 26.271 C 377.667 30.862,377.658 30.834,379.038 30.831 C 380.369 30.828,380.815 30.595,381.336 29.634 C 382.048 28.321,382.395 28.770,381.971 30.458 L 381.645 31.755 378.239 31.752 C 375.108 31.750,374.833 31.727,374.833 31.458 C 374.833 31.298,374.940 31.167,375.071 31.167 C 375.779 31.167,375.833 30.837,375.833 26.521 C 375.833 22.248,375.795 22.000,375.133 22.000 C 374.933 22.000,374.833 21.875,374.833 21.625 C 374.833 21.256,374.865 21.250,376.792 21.272 C 378.580 21.292,378.750 21.321,378.750 21.603 M282.042 21.665 C 281.744 21.846,281.500 22.025,281.500 22.061 C 281.500 22.097,281.386 22.398,281.248 22.730 L 280.996 23.333 282.664 23.333 L 284.333 23.333 284.333 22.781 C 284.333 21.611,283.109 21.014,282.042 21.665 M328.551 21.583 C 328.160 21.857,327.500 22.841,327.500 23.151 C 327.500 23.289,327.970 23.332,329.125 23.298 L 330.750 23.250 330.724 22.694 C 330.671 21.575,329.452 20.952,328.551 21.583 M365.667 24.250 L 365.667 25.333 366.495 25.333 C 367.695 25.333,367.496 26.054,366.273 26.134 L 365.500 26.185 365.500 27.885 C 365.500 30.411,365.759 31.073,366.676 30.890 C 367.484 30.728,367.445 31.299,366.623 31.672 C 365.613 32.131,365.064 32.090,364.487 31.513 L 364.000 31.026 364.000 28.596 C 364.000 26.278,363.985 26.167,363.667 26.167 C 363.176 26.167,363.260 25.804,363.891 25.191 C 364.198 24.894,364.616 24.317,364.819 23.909 C 365.371 22.805,365.667 22.924,365.667 24.250 M385.000 24.250 L 385.000 25.333 385.762 25.333 C 386.931 25.333,386.807 26.058,385.625 26.134 L 384.833 26.185 384.836 28.134 C 384.839 30.536,384.993 30.939,385.884 30.868 C 386.787 30.796,386.752 31.363,385.830 31.732 C 383.822 32.535,383.286 31.857,383.319 28.555 C 383.342 26.259,383.330 26.167,383.005 26.167 C 382.494 26.167,382.596 25.719,383.235 25.157 C 383.548 24.883,383.942 24.323,384.110 23.913 C 384.597 22.730,385.000 22.883,385.000 24.250 M359.833 25.500 C 359.833 25.688,359.722 25.833,359.578 25.833 C 359.125 25.833,359.126 26.294,359.585 27.671 C 360.103 29.227,360.087 29.229,360.707 27.534 L 361.177 26.250 360.838 25.973 C 360.134 25.397,360.394 25.167,361.750 25.167 C 363.094 25.167,363.507 25.549,362.607 25.959 C 362.300 26.099,361.960 26.773,361.056 29.027 C 360.331 30.836,359.811 31.917,359.665 31.917 C 359.450 31.917,358.998 30.873,357.749 27.500 C 357.528 26.904,357.157 26.252,356.924 26.050 C 356.094 25.331,356.325 25.167,358.167 25.167 C 359.722 25.167,359.833 25.189,359.833 25.500 M389.262 26.252 C 388.089 27.518,388.730 30.667,390.161 30.667 C 391.060 30.667,391.222 30.299,391.123 28.486 C 390.986 26.006,390.278 25.156,389.262 26.252 M88.000 26.765 C 86.947 27.366,86.714 27.610,86.596 28.240 C 86.329 29.663,87.318 30.422,88.516 29.714 C 88.995 29.431,89.000 29.412,89.000 27.881 C 89.000 26.147,89.028 26.179,88.000 26.765 M155.904 26.577 C 153.896 27.423,153.411 30.010,155.263 29.996 C 156.291 29.988,156.519 29.587,156.465 27.883 L 156.417 26.361 155.904 26.577 M205.917 26.676 C 204.038 27.650,203.678 30.000,205.408 30.000 C 206.475 30.000,206.688 29.630,206.632 27.873 L 206.583 26.330 205.917 26.676 M246.495 26.875 C 244.865 27.849,244.716 30.000,246.278 30.000 C 247.387 30.000,247.667 29.574,247.667 27.881 C 247.667 26.119,247.705 26.152,246.495 26.875 M369.591 29.909 C 370.075 30.394,370.115 30.987,369.698 31.502 C 369.081 32.264,367.833 31.743,367.833 30.724 C 367.833 30.267,368.512 29.500,368.917 29.500 C 369.063 29.500,369.366 29.684,369.591 29.909 M395.909 29.604 C 396.718 29.914,396.743 31.504,395.944 31.776 C 394.728 32.190,393.923 30.645,394.939 29.845 C 395.417 29.470,395.504 29.448,395.909 29.604 " stroke="none" fill="#fbfbfb" fill-rule="evenodd"></path><path id="path2" d="M32.482 2.175 C 31.968 2.235,31.463 2.337,31.359 2.401 C 31.256 2.464,30.741 2.587,30.214 2.672 C 29.625 2.768,28.486 3.209,27.253 3.818 C 26.152 4.363,25.081 4.856,24.875 4.915 C 24.669 4.974,24.500 5.095,24.500 5.184 C 24.500 5.273,24.155 5.493,23.734 5.673 C 23.313 5.854,22.583 6.339,22.112 6.751 C 21.641 7.163,21.154 7.500,21.029 7.500 C 20.592 7.500,19.734 8.237,17.500 10.528 C 14.918 13.177,14.689 13.282,13.917 12.167 C 12.682 10.385,12.739 7.333,14.008 7.333 C 14.154 7.333,14.679 6.956,15.173 6.494 C 16.180 5.553,18.509 4.304,19.963 3.924 C 20.488 3.787,21.329 3.528,21.833 3.349 L 22.750 3.022 22.083 2.724 C 20.417 1.980,15.167 2.564,15.167 3.493 C 15.167 3.564,14.848 3.833,14.458 4.090 C 14.069 4.348,13.329 4.977,12.814 5.488 C 12.300 5.999,11.625 6.654,11.314 6.945 C 10.377 7.821,9.615 8.682,8.990 9.570 C 8.440 10.351,7.666 11.050,6.058 12.215 C 5.705 12.471,5.229 12.945,5.000 13.268 C 4.771 13.592,4.396 14.091,4.167 14.377 C 3.402 15.333,3.625 18.738,4.466 18.938 C 4.714 18.998,4.994 19.106,5.089 19.180 C 5.562 19.549,5.722 19.022,5.786 16.890 C 5.863 14.328,6.143 13.251,6.774 13.092 C 7.376 12.941,7.563 13.170,7.814 14.365 C 8.180 16.115,8.966 18.793,9.232 19.200 C 9.370 19.411,9.532 19.892,9.593 20.269 C 9.795 21.535,10.279 21.804,12.717 22.008 C 13.743 22.093,15.033 22.239,15.583 22.331 C 16.133 22.423,17.268 22.499,18.105 22.499 C 20.050 22.500,20.211 22.360,19.694 21.114 C 19.232 20.000,19.231 19.310,19.689 18.901 C 19.884 18.726,20.325 18.208,20.667 17.750 C 22.552 15.227,26.900 11.491,29.122 10.484 C 29.559 10.286,30.188 9.881,30.519 9.583 C 30.850 9.285,31.525 8.916,32.019 8.762 C 32.513 8.608,33.067 8.398,33.250 8.296 C 33.433 8.193,33.846 8.051,34.167 7.980 C 34.487 7.909,35.148 7.737,35.634 7.599 C 36.120 7.461,37.268 7.280,38.186 7.197 C 39.104 7.113,39.934 6.966,40.031 6.869 C 40.529 6.371,38.104 3.532,36.780 3.065 C 36.413 2.935,36.031 2.762,35.931 2.680 C 35.831 2.599,35.300 2.478,34.750 2.412 C 34.200 2.346,33.675 2.241,33.583 2.179 C 33.492 2.117,32.996 2.115,32.482 2.175 M36.685 11.775 C 36.876 12.220,37.172 12.883,37.342 13.250 C 37.588 13.777,37.646 14.253,37.618 15.517 L 37.583 17.117 38.083 17.090 C 39.546 17.010,40.667 15.518,40.667 13.649 C 40.667 12.325,39.221 11.286,37.044 11.045 L 36.338 10.967 36.685 11.775 M69.714 13.957 C 70.245 13.990,71.070 13.990,71.548 13.956 C 72.026 13.922,71.592 13.895,70.583 13.896 C 69.575 13.896,69.184 13.924,69.714 13.957 M78.042 13.956 C 78.477 13.990,79.190 13.990,79.625 13.956 C 80.060 13.922,79.704 13.893,78.833 13.893 C 77.962 13.893,77.606 13.922,78.042 13.956 M171.801 13.958 C 172.745 13.988,174.245 13.987,175.134 13.957 C 176.023 13.928,175.250 13.903,173.417 13.903 C 171.583 13.904,170.856 13.928,171.801 13.958 M7.942 28.280 C 7.730 28.492,8.047 29.582,8.524 30.280 C 8.786 30.663,9.000 31.128,9.000 31.313 C 9.000 31.867,9.984 33.154,10.841 33.720 C 11.282 34.012,11.757 34.443,11.897 34.679 C 12.037 34.915,12.457 35.403,12.831 35.763 C 13.204 36.122,13.698 36.735,13.928 37.124 C 14.554 38.182,15.057 38.368,17.667 38.502 C 22.125 38.731,23.001 37.766,18.952 37.088 C 17.977 36.925,15.287 35.553,15.048 35.097 C 14.935 34.881,14.478 34.442,14.032 34.122 C 13.008 33.387,12.402 32.321,12.702 31.784 C 13.718 29.964,13.400 29.263,11.600 29.356 C 10.932 29.390,10.758 29.332,10.448 28.967 C 9.924 28.350,8.314 27.908,7.942 28.280 M24.015 29.424 C 23.244 29.544,21.657 29.663,20.487 29.687 C 17.364 29.754,17.362 29.755,18.830 31.186 C 19.496 31.835,20.399 32.577,20.836 32.835 C 21.274 33.093,22.105 33.648,22.683 34.069 C 23.260 34.489,23.831 34.833,23.950 34.833 C 24.069 34.833,24.167 34.900,24.167 34.981 C 24.167 35.062,24.580 35.296,25.085 35.501 C 25.591 35.706,26.322 36.126,26.710 36.435 C 27.099 36.744,27.482 36.997,27.563 36.998 C 27.643 36.999,28.144 37.221,28.676 37.491 C 30.159 38.245,32.032 38.582,34.750 38.583 L 37.083 38.583 38.602 37.698 C 39.945 36.914,40.163 36.719,40.497 36.006 C 40.784 35.394,40.985 35.178,41.334 35.108 C 42.393 34.896,42.776 33.534,41.750 33.630 C 39.216 33.869,37.466 33.685,35.602 32.985 C 31.982 31.625,31.620 31.468,30.939 30.972 C 28.367 29.100,27.432 28.890,24.015 29.424 " stroke="none" fill="#3eaddd" fill-rule="evenodd"></path><path id="path3" d="M32.000 1.611 C 30.881 1.758,28.571 2.545,26.884 3.353 C 25.949 3.800,25.109 4.167,25.017 4.167 C 24.925 4.167,24.602 4.418,24.300 4.725 C 23.997 5.033,23.542 5.334,23.289 5.396 C 22.141 5.674,19.726 7.500,17.539 9.742 C 15.412 11.922,14.950 12.344,14.757 12.283 C 14.384 12.165,13.685 10.404,13.603 9.381 L 13.521 8.345 14.219 7.800 C 14.603 7.500,14.992 7.170,15.083 7.067 C 15.442 6.661,17.041 5.500,17.242 5.500 C 17.358 5.500,17.857 5.286,18.352 5.025 C 19.265 4.542,19.968 4.304,22.500 3.621 C 25.114 2.915,23.913 2.186,19.917 2.052 C 16.721 1.945,14.813 2.776,12.237 5.395 C 11.955 5.682,11.468 6.153,11.154 6.441 C 10.325 7.203,8.788 8.973,8.515 9.480 C 8.251 9.970,8.127 10.079,6.833 10.948 C 5.609 11.771,4.876 12.461,4.478 13.167 C 4.297 13.487,3.967 14.050,3.744 14.417 C 3.181 15.344,3.129 18.529,3.667 19.212 C 3.926 19.542,4.000 19.890,4.001 20.776 C 4.005 23.560,4.249 24.018,6.900 26.220 L 7.667 26.857 7.560 28.006 C 7.402 29.711,7.767 30.829,9.154 32.875 C 9.449 33.310,9.758 33.667,9.841 33.667 C 10.050 33.667,12.951 36.605,13.531 37.403 C 14.525 38.773,17.558 39.379,20.833 38.862 C 23.373 38.461,23.241 37.900,20.417 37.090 C 18.531 36.549,15.740 35.193,15.083 34.499 C 14.808 34.208,14.383 33.866,14.139 33.738 C 13.489 33.399,13.245 32.534,13.575 31.744 C 13.717 31.404,13.833 30.981,13.833 30.805 C 13.833 29.087,15.843 28.706,17.026 30.199 C 17.305 30.551,18.088 31.257,18.766 31.768 C 19.445 32.278,20.000 32.752,20.000 32.820 C 20.000 32.954,21.552 34.000,21.751 34.000 C 21.818 34.000,22.109 34.208,22.399 34.462 C 22.688 34.716,23.551 35.250,24.317 35.648 C 25.083 36.047,25.973 36.552,26.296 36.770 C 26.618 36.989,27.189 37.257,27.566 37.365 C 27.942 37.474,28.462 37.736,28.721 37.948 C 28.980 38.160,29.355 38.335,29.554 38.336 C 29.754 38.338,30.479 38.486,31.167 38.665 C 33.934 39.387,36.887 39.258,38.283 38.354 C 38.723 38.069,39.423 37.635,39.838 37.390 C 40.254 37.144,40.779 36.649,41.005 36.289 C 41.231 35.929,41.623 35.527,41.875 35.396 C 42.127 35.265,42.333 35.102,42.333 35.034 C 42.333 34.966,42.633 34.548,43.000 34.104 C 43.367 33.660,43.667 33.230,43.667 33.149 C 43.667 32.938,42.113 32.964,41.553 33.184 C 39.957 33.812,36.130 33.018,33.078 31.427 C 32.806 31.285,32.482 31.168,32.359 31.168 C 32.236 31.167,31.935 31.035,31.692 30.875 C 31.063 30.461,30.712 30.250,29.625 29.634 C 28.209 28.830,28.311 28.191,29.896 27.947 C 30.251 27.892,30.663 27.739,30.812 27.606 C 30.961 27.473,31.533 27.211,32.083 27.024 C 34.192 26.308,35.061 25.916,37.203 24.722 C 37.395 24.614,37.645 24.305,37.759 24.035 C 37.915 23.665,38.112 23.516,38.559 23.432 C 39.218 23.309,39.713 22.786,40.003 21.906 C 40.107 21.591,40.256 21.333,40.333 21.333 C 40.411 21.333,40.561 21.052,40.668 20.708 C 40.937 19.843,41.312 19.033,41.498 18.918 C 41.829 18.713,41.449 13.413,41.039 12.528 C 40.587 11.551,37.572 10.279,36.403 10.572 C 35.886 10.702,35.844 11.646,36.325 12.321 C 37.052 13.343,37.289 14.323,37.152 15.750 C 37.081 16.483,37.058 17.421,37.099 17.833 C 37.186 18.689,37.071 18.875,36.042 19.544 C 35.652 19.797,35.333 20.073,35.333 20.155 C 35.333 20.486,34.181 20.979,32.954 21.174 C 32.241 21.288,31.617 21.445,31.569 21.524 C 31.520 21.602,31.306 21.667,31.093 21.667 C 30.879 21.667,30.490 21.779,30.227 21.916 C 29.965 22.053,29.559 22.165,29.325 22.166 C 29.091 22.166,28.828 22.239,28.739 22.327 C 28.560 22.507,26.112 22.793,24.587 22.812 C 24.038 22.819,23.391 22.907,23.148 23.008 C 22.205 23.398,21.662 23.170,21.151 22.167 C 20.894 21.662,20.493 21.085,20.258 20.882 C 19.600 20.315,19.605 19.345,20.268 18.990 C 20.507 18.862,20.915 18.456,21.175 18.087 C 21.692 17.352,23.881 15.152,25.353 13.888 C 27.232 12.274,27.728 11.903,28.981 11.167 C 29.683 10.754,30.493 10.248,30.780 10.042 C 31.067 9.835,31.359 9.667,31.429 9.667 C 31.500 9.667,31.675 9.562,31.820 9.435 C 32.712 8.648,37.563 7.516,40.223 7.474 C 42.161 7.443,42.333 7.336,41.566 6.642 C 41.328 6.427,41.031 6.138,40.906 6.000 C 39.738 4.711,37.676 2.677,37.381 2.522 C 36.126 1.863,33.485 1.416,32.000 1.611 M34.750 2.412 C 35.300 2.478,35.831 2.599,35.931 2.680 C 36.031 2.762,36.413 2.935,36.780 3.065 C 38.104 3.532,40.529 6.371,40.031 6.869 C 39.934 6.966,39.104 7.113,38.186 7.197 C 37.268 7.280,36.120 7.461,35.634 7.599 C 35.148 7.737,34.487 7.909,34.167 7.980 C 33.846 8.051,33.433 8.193,33.250 8.296 C 33.067 8.398,32.513 8.608,32.019 8.762 C 31.525 8.916,30.850 9.285,30.519 9.583 C 30.188 9.881,29.559 10.286,29.122 10.484 C 26.900 11.491,22.552 15.227,20.667 17.750 C 20.325 18.208,19.884 18.726,19.689 18.901 C 19.231 19.310,19.232 20.000,19.694 21.114 C 20.211 22.360,20.050 22.500,18.105 22.499 C 17.268 22.499,16.133 22.423,15.583 22.331 C 15.033 22.239,13.743 22.093,12.717 22.008 C 10.279 21.804,9.795 21.535,9.593 20.269 C 9.532 19.892,9.370 19.411,9.232 19.200 C 8.966 18.793,8.180 16.115,7.814 14.365 C 7.563 13.170,7.376 12.941,6.774 13.092 C 6.143 13.251,5.863 14.328,5.786 16.890 C 5.722 19.022,5.562 19.549,5.089 19.180 C 4.994 19.106,4.714 18.998,4.466 18.938 C 3.625 18.738,3.402 15.333,4.167 14.377 C 4.396 14.091,4.771 13.592,5.000 13.268 C 5.229 12.945,5.705 12.471,6.058 12.215 C 7.666 11.050,8.440 10.351,8.990 9.570 C 9.615 8.682,10.377 7.821,11.314 6.945 C 11.625 6.654,12.300 5.999,12.814 5.488 C 13.329 4.977,14.069 4.348,14.458 4.090 C 14.848 3.833,15.167 3.564,15.167 3.493 C 15.167 2.564,20.417 1.980,22.083 2.724 L 22.750 3.022 21.833 3.349 C 21.329 3.528,20.488 3.787,19.963 3.924 C 18.509 4.304,16.180 5.553,15.173 6.494 C 14.679 6.956,14.154 7.333,14.008 7.333 C 12.739 7.333,12.682 10.385,13.917 12.167 C 14.689 13.282,14.918 13.177,17.500 10.528 C 19.734 8.237,20.592 7.500,21.029 7.500 C 21.154 7.500,21.641 7.163,22.112 6.751 C 22.583 6.339,23.313 5.854,23.734 5.673 C 24.155 5.493,24.500 5.273,24.500 5.184 C 24.500 5.095,24.669 4.974,24.875 4.915 C 25.081 4.856,26.152 4.363,27.253 3.818 C 28.486 3.209,29.625 2.768,30.214 2.672 C 30.741 2.587,31.256 2.464,31.359 2.401 C 31.645 2.224,33.394 2.050,33.583 2.179 C 33.675 2.241,34.200 2.346,34.750 2.412 M38.750 11.493 C 40.133 12.005,40.667 12.605,40.667 13.649 C 40.667 15.518,39.546 17.010,38.083 17.090 L 37.583 17.117 37.618 15.517 C 37.646 14.253,37.588 13.777,37.342 13.250 C 37.172 12.883,36.876 12.220,36.685 11.775 L 36.338 10.967 37.044 11.045 C 37.432 11.088,38.200 11.290,38.750 11.493 M7.674 15.412 C 7.780 16.056,8.172 17.500,8.545 18.621 C 9.398 21.182,9.321 21.604,8.027 21.451 C 6.336 21.251,5.347 20.257,5.964 19.377 C 6.222 19.008,6.305 18.514,6.384 16.880 C 6.537 13.729,7.263 12.903,7.674 15.412 M275.872 14.500 C 275.872 14.821,275.906 14.952,275.948 14.792 C 275.990 14.631,275.990 14.369,275.948 14.208 C 275.906 14.048,275.872 14.179,275.872 14.500 M257.042 15.750 C 257.044 16.117,257.078 16.247,257.118 16.040 C 257.158 15.832,257.156 15.532,257.115 15.373 C 257.073 15.214,257.040 15.383,257.042 15.750 M173.237 19.000 C 173.237 20.879,173.261 21.648,173.291 20.708 C 173.321 19.769,173.321 18.231,173.291 17.292 C 173.261 16.352,173.237 17.121,173.237 19.000 M72.039 16.833 C 72.039 17.154,72.073 17.285,72.115 17.125 C 72.157 16.965,72.157 16.702,72.115 16.542 C 72.073 16.381,72.039 16.512,72.039 16.833 M120.076 22.833 C 120.076 26.271,120.098 27.677,120.125 25.958 C 120.152 24.240,120.152 21.427,120.125 19.708 C 120.098 17.990,120.076 19.396,120.076 22.833 M298.129 20.622 C 298.521 20.657,299.121 20.657,299.463 20.621 C 299.804 20.585,299.483 20.557,298.750 20.557 C 298.017 20.558,297.737 20.587,298.129 20.622 M304.288 20.620 C 304.584 20.657,305.109 20.658,305.455 20.622 C 305.800 20.586,305.558 20.555,304.917 20.555 C 304.275 20.554,303.992 20.583,304.288 20.620 M295.898 21.217 C 295.881 21.713,295.892 21.724,296.051 21.370 C 296.155 21.139,296.162 20.929,296.070 20.837 C 295.977 20.745,295.909 20.895,295.898 21.217 M311.881 21.917 C 311.882 22.375,311.915 22.543,311.953 22.289 C 311.991 22.036,311.990 21.661,311.951 21.456 C 311.911 21.251,311.880 21.458,311.881 21.917 M353.294 21.285 C 353.501 21.324,353.801 21.323,353.960 21.281 C 354.120 21.239,353.950 21.207,353.583 21.209 C 353.217 21.211,353.086 21.245,353.294 21.285 M94.372 21.833 C 94.372 22.154,94.406 22.285,94.448 22.125 C 94.490 21.965,94.490 21.702,94.448 21.542 C 94.406 21.381,94.372 21.512,94.372 21.833 M178.723 23.000 C 178.723 23.688,178.752 23.969,178.788 23.625 C 178.824 23.281,178.824 22.719,178.788 22.375 C 178.752 22.031,178.723 22.313,178.723 23.000 M185.237 25.833 C 185.237 27.804,185.262 28.610,185.291 27.625 C 185.321 26.640,185.321 25.027,185.291 24.042 C 185.262 23.056,185.237 23.863,185.237 25.833 M341.205 22.833 C 341.205 23.154,341.240 23.285,341.282 23.125 C 341.323 22.965,341.323 22.702,341.282 22.542 C 341.240 22.381,341.205 22.512,341.205 22.833 M107.236 26.000 C 107.236 27.787,107.261 28.519,107.291 27.625 C 107.321 26.731,107.321 25.269,107.291 24.375 C 107.261 23.481,107.236 24.212,107.236 26.000 M136.069 25.917 C 136.070 27.658,136.094 28.348,136.124 27.450 C 136.154 26.551,136.154 25.126,136.124 24.283 C 136.094 23.440,136.069 24.175,136.069 25.917 M192.236 25.750 C 192.236 27.400,192.261 28.052,192.291 27.200 C 192.321 26.347,192.321 24.997,192.291 24.200 C 192.260 23.402,192.235 24.100,192.236 25.750 M375.905 26.583 C 375.905 28.692,375.929 29.531,375.958 28.449 C 375.987 27.367,375.987 25.642,375.958 24.616 C 375.928 23.590,375.905 24.475,375.905 26.583 M148.569 26.083 C 148.570 27.825,148.594 28.515,148.624 27.616 C 148.654 26.718,148.654 25.293,148.624 24.450 C 148.594 23.607,148.569 24.342,148.569 26.083 M333.205 23.500 C 333.205 23.821,333.240 23.952,333.282 23.792 C 333.323 23.631,333.323 23.369,333.282 23.208 C 333.240 23.048,333.205 23.179,333.205 23.500 M384.879 23.833 C 384.879 24.246,384.911 24.415,384.951 24.208 C 384.991 24.002,384.991 23.665,384.951 23.458 C 384.911 23.252,384.879 23.421,384.879 23.833 M173.240 23.716 C 173.195 23.834,173.180 25.053,173.208 26.424 L 173.260 28.917 173.296 26.299 L 173.333 23.681 174.625 23.624 L 175.917 23.567 174.620 23.534 C 173.687 23.509,173.300 23.561,173.240 23.716 M196.039 24.000 C 196.039 24.321,196.073 24.452,196.115 24.292 C 196.157 24.131,196.157 23.869,196.115 23.708 C 196.073 23.548,196.039 23.679,196.039 24.000 M104.569 26.583 C 104.569 28.233,104.594 28.886,104.624 28.033 C 104.655 27.181,104.654 25.831,104.624 25.033 C 104.593 24.236,104.569 24.933,104.569 26.583 M182.569 26.667 C 182.569 28.271,182.594 28.927,182.624 28.125 C 182.655 27.323,182.655 26.010,182.624 25.208 C 182.594 24.406,182.569 25.063,182.569 26.667 M220.069 26.750 C 220.069 28.400,220.094 29.052,220.124 28.200 C 220.155 27.347,220.154 25.997,220.124 25.200 C 220.093 24.402,220.069 25.100,220.069 26.750 M129.235 26.833 C 129.235 28.346,129.260 28.965,129.291 28.208 C 129.322 27.452,129.322 26.215,129.291 25.458 C 129.260 24.702,129.235 25.321,129.235 26.833 M126.565 26.917 C 126.565 28.108,126.592 28.574,126.624 27.951 C 126.656 27.329,126.656 26.354,126.623 25.785 C 126.591 25.216,126.564 25.725,126.565 26.917 M357.628 25.287 C 357.928 25.325,358.378 25.324,358.628 25.286 C 358.878 25.248,358.633 25.217,358.083 25.218 C 357.533 25.219,357.328 25.250,357.628 25.287 M361.292 25.284 C 361.498 25.324,361.835 25.324,362.042 25.284 C 362.248 25.245,362.079 25.212,361.667 25.212 C 361.254 25.212,361.085 25.245,361.292 25.284 M292.229 27.083 C 292.229 28.092,292.257 28.483,292.290 27.952 C 292.323 27.422,292.323 26.597,292.289 26.119 C 292.256 25.641,292.229 26.075,292.229 27.083 M314.714 26.417 C 314.716 26.875,314.748 27.043,314.786 26.789 C 314.825 26.536,314.824 26.161,314.784 25.956 C 314.744 25.751,314.713 25.958,314.714 26.417 M72.039 28.500 C 72.039 28.821,72.073 28.952,72.115 28.792 C 72.157 28.631,72.157 28.369,72.115 28.208 C 72.073 28.048,72.039 28.179,72.039 28.500 M9.517 28.352 C 9.828 28.454,10.248 28.731,10.448 28.967 C 10.758 29.332,10.932 29.390,11.600 29.356 C 13.400 29.263,13.718 29.964,12.702 31.784 C 12.402 32.321,13.008 33.387,14.032 34.122 C 14.478 34.442,14.935 34.881,15.048 35.097 C 15.287 35.553,17.977 36.925,18.952 37.088 C 23.001 37.766,22.125 38.731,17.667 38.502 C 15.057 38.368,14.554 38.182,13.928 37.124 C 13.698 36.735,13.204 36.122,12.831 35.763 C 12.457 35.403,12.037 34.915,11.897 34.679 C 11.757 34.443,11.282 34.012,10.841 33.720 C 9.984 33.154,9.000 31.867,9.000 31.313 C 9.000 31.128,8.786 30.663,8.524 30.280 C 7.376 28.599,7.793 27.788,9.517 28.352 M242.542 29.250 C 242.544 29.617,242.578 29.747,242.618 29.540 C 242.658 29.332,242.656 29.032,242.615 28.873 C 242.573 28.714,242.540 28.883,242.542 29.250 M29.138 29.819 C 29.749 30.177,30.560 30.696,30.939 30.972 C 31.620 31.468,31.982 31.625,35.602 32.985 C 37.466 33.685,39.216 33.869,41.750 33.630 C 42.776 33.534,42.393 34.896,41.334 35.108 C 40.985 35.178,40.784 35.394,40.497 36.006 C 40.163 36.719,39.945 36.914,38.602 37.698 L 37.083 38.583 34.750 38.583 C 32.032 38.582,30.159 38.245,28.676 37.491 C 28.144 37.221,27.643 36.999,27.563 36.998 C 27.482 36.997,27.099 36.744,26.710 36.435 C 26.322 36.126,25.591 35.706,25.085 35.501 C 24.580 35.296,24.167 35.062,24.167 34.981 C 24.167 34.900,24.069 34.833,23.950 34.833 C 23.831 34.833,23.260 34.489,22.683 34.069 C 22.105 33.648,21.274 33.093,20.836 32.835 C 20.399 32.577,19.496 31.835,18.830 31.186 C 17.362 29.755,17.364 29.754,20.487 29.687 C 21.657 29.663,23.244 29.544,24.015 29.424 C 26.787 28.991,27.868 29.074,29.138 29.819 M233.740 30.375 L 233.250 30.917 233.792 30.427 C 234.297 29.971,234.410 29.833,234.281 29.833 C 234.252 29.833,234.009 30.077,233.740 30.375 M94.372 31.167 C 94.372 31.488,94.406 31.619,94.448 31.458 C 94.490 31.298,94.490 31.035,94.448 30.875 C 94.406 30.715,94.372 30.846,94.372 31.167 M125.039 31.167 C 125.039 31.488,125.073 31.619,125.115 31.458 C 125.157 31.298,125.157 31.035,125.115 30.875 C 125.073 30.715,125.039 30.846,125.039 31.167 M132.039 31.167 C 132.039 31.488,132.073 31.619,132.115 31.458 C 132.157 31.298,132.157 31.035,132.115 30.875 C 132.073 30.715,132.039 30.846,132.039 31.167 M149.872 31.167 C 149.872 31.488,149.906 31.619,149.948 31.458 C 149.990 31.298,149.990 31.035,149.948 30.875 C 149.906 30.715,149.872 30.846,149.872 31.167 M90.375 31.948 C 90.535 31.990,90.798 31.990,90.958 31.948 C 91.119 31.906,90.987 31.872,90.667 31.872 C 90.346 31.872,90.215 31.906,90.375 31.948 " stroke="none" fill="#9ac6da" fill-rule="evenodd"></path><path id="path4" d="M31.667 1.415 C 31.162 1.527,30.391 1.742,29.953 1.893 C 29.514 2.043,29.053 2.167,28.928 2.167 C 28.803 2.167,27.962 2.530,27.059 2.974 C 26.156 3.417,25.109 3.921,24.732 4.093 C 24.356 4.264,23.981 4.555,23.899 4.739 C 23.817 4.924,23.520 5.120,23.235 5.177 C 22.951 5.234,22.291 5.574,21.767 5.932 C 21.243 6.290,20.590 6.699,20.316 6.841 C 20.041 6.983,19.614 7.292,19.367 7.527 C 18.786 8.079,15.723 11.159,15.368 11.547 C 14.786 12.185,13.741 10.853,13.906 9.685 C 13.951 9.374,13.914 8.984,13.826 8.819 C 13.709 8.602,13.730 8.480,13.899 8.384 C 14.029 8.310,14.525 7.889,15.003 7.448 C 16.027 6.502,17.445 5.500,17.760 5.500 C 17.882 5.500,18.335 5.313,18.766 5.083 C 19.211 4.847,19.827 4.667,20.191 4.667 C 20.651 4.667,20.833 4.596,20.833 4.417 C 20.833 4.251,20.999 4.167,21.323 4.167 C 21.593 4.167,21.860 4.092,21.917 4.000 C 21.973 3.908,22.243 3.833,22.515 3.833 C 23.755 3.833,24.660 2.922,23.958 2.380 C 23.474 2.005,18.066 1.600,17.333 1.884 C 17.196 1.937,16.734 2.094,16.307 2.233 C 15.528 2.486,12.167 4.868,12.167 5.167 C 12.167 5.396,11.366 5.887,10.943 5.917 C 10.702 5.934,10.564 6.073,10.526 6.337 C 10.494 6.553,10.041 7.222,9.519 7.824 C 8.997 8.425,8.471 9.114,8.350 9.355 C 8.117 9.824,7.087 10.619,6.217 11.005 C 5.925 11.134,5.652 11.372,5.609 11.534 C 5.567 11.697,5.355 11.897,5.138 11.979 C 4.922 12.061,4.558 12.481,4.331 12.912 C 3.754 14.002,3.601 14.260,3.359 14.552 C 2.976 15.014,3.543 23.699,3.975 23.993 C 4.048 24.043,4.285 24.402,4.501 24.792 C 4.718 25.181,4.988 25.500,5.102 25.500 C 5.216 25.500,5.521 25.753,5.780 26.062 C 6.038 26.371,6.494 26.748,6.792 26.900 C 7.332 27.174,7.333 27.179,7.333 28.451 C 7.333 29.638,7.510 30.569,7.849 31.167 C 7.927 31.304,8.111 31.655,8.258 31.945 C 8.405 32.236,8.625 32.512,8.747 32.559 C 8.869 32.606,9.017 32.864,9.076 33.134 C 9.151 33.477,9.368 33.717,9.800 33.937 C 10.139 34.109,10.448 34.324,10.485 34.414 C 10.523 34.505,11.254 35.290,12.110 36.158 C 12.966 37.027,13.667 37.832,13.667 37.949 C 13.667 38.852,18.239 39.536,21.000 39.046 C 22.838 38.720,23.813 38.164,23.042 37.883 C 22.881 37.825,22.571 37.639,22.353 37.472 C 22.134 37.304,21.796 37.164,21.603 37.161 C 21.409 37.158,20.950 37.010,20.583 36.833 C 20.217 36.656,19.823 36.509,19.708 36.506 C 19.594 36.503,19.500 36.424,19.500 36.330 C 19.500 36.233,19.325 36.204,19.089 36.263 C 18.807 36.334,18.540 36.258,18.236 36.019 C 17.993 35.828,17.728 35.712,17.647 35.762 C 17.566 35.812,17.425 35.657,17.334 35.418 C 17.202 35.070,17.111 35.015,16.882 35.143 C 16.573 35.316,15.337 34.736,15.334 34.417 C 15.333 34.325,15.005 34.043,14.603 33.789 C 13.803 33.284,13.550 32.661,13.837 31.906 C 13.927 31.671,14.000 31.300,14.000 31.082 C 14.000 30.864,14.136 30.588,14.303 30.468 C 14.469 30.348,14.654 30.119,14.714 29.958 C 14.940 29.353,16.496 29.661,16.895 30.390 C 17.053 30.680,17.449 31.104,17.775 31.333 C 18.101 31.563,18.504 31.876,18.671 32.029 C 18.838 32.183,19.134 32.393,19.329 32.498 C 19.523 32.602,19.752 32.870,19.837 33.093 C 19.925 33.324,20.126 33.500,20.303 33.500 C 20.475 33.500,20.751 33.650,20.917 33.833 C 21.083 34.017,21.352 34.167,21.514 34.167 C 21.677 34.167,21.958 34.373,22.139 34.625 C 22.346 34.915,22.967 35.297,23.831 35.667 C 24.581 35.987,25.357 36.417,25.556 36.622 C 25.754 36.827,26.043 36.996,26.198 36.997 C 26.354 36.999,26.525 37.073,26.581 37.162 C 26.636 37.251,26.980 37.405,27.346 37.503 C 27.712 37.602,28.209 37.904,28.450 38.175 C 28.809 38.577,29.021 38.667,29.614 38.667 C 30.013 38.667,30.919 38.823,31.628 39.013 C 32.661 39.291,33.303 39.350,34.867 39.310 C 35.939 39.283,36.870 39.315,36.936 39.380 C 37.169 39.613,37.660 39.510,37.560 39.250 C 37.505 39.105,37.560 38.995,37.691 38.989 C 37.815 38.983,38.367 38.646,38.917 38.240 C 39.467 37.834,40.160 37.393,40.458 37.259 C 40.756 37.126,41.000 36.918,41.000 36.798 C 41.000 36.677,41.226 36.354,41.501 36.081 C 43.327 34.268,44.173 33.210,44.051 32.892 C 43.937 32.595,42.256 32.650,41.250 32.984 C 40.975 33.075,40.487 33.223,40.167 33.312 C 39.608 33.468,39.614 33.471,40.333 33.390 C 40.746 33.344,41.301 33.237,41.567 33.153 C 42.185 32.957,43.667 32.954,43.667 33.149 C 43.667 33.230,43.367 33.660,43.000 34.104 C 42.633 34.548,42.333 34.966,42.333 35.034 C 42.333 35.102,42.127 35.265,41.875 35.396 C 41.623 35.527,41.231 35.929,41.005 36.289 C 40.779 36.649,40.254 37.144,39.838 37.390 C 39.423 37.635,38.723 38.069,38.283 38.354 C 36.887 39.258,33.934 39.387,31.167 38.665 C 30.479 38.486,29.754 38.338,29.554 38.336 C 29.355 38.335,28.980 38.160,28.721 37.948 C 28.462 37.736,27.942 37.474,27.566 37.365 C 27.189 37.257,26.618 36.989,26.296 36.770 C 25.973 36.552,25.083 36.047,24.317 35.648 C 23.551 35.250,22.688 34.716,22.399 34.462 C 22.109 34.208,21.818 34.000,21.751 34.000 C 21.552 34.000,20.000 32.954,20.000 32.820 C 20.000 32.752,19.445 32.278,18.766 31.768 C 18.088 31.257,17.305 30.551,17.026 30.199 C 15.843 28.706,13.833 29.087,13.833 30.805 C 13.833 30.981,13.717 31.404,13.575 31.744 C 13.245 32.534,13.489 33.399,14.139 33.738 C 14.383 33.866,14.808 34.208,15.083 34.499 C 15.740 35.193,18.531 36.549,20.417 37.090 C 23.241 37.900,23.373 38.461,20.833 38.862 C 17.558 39.379,14.525 38.773,13.531 37.403 C 12.951 36.605,10.050 33.667,9.841 33.667 C 9.758 33.667,9.449 33.310,9.154 32.875 C 7.767 30.829,7.402 29.711,7.560 28.006 L 7.667 26.857 6.900 26.220 C 4.249 24.018,4.005 23.560,4.001 20.776 C 4.000 19.890,3.926 19.542,3.667 19.212 C 3.129 18.529,3.181 15.344,3.744 14.417 C 3.967 14.050,4.297 13.487,4.478 13.167 C 4.876 12.461,5.609 11.771,6.833 10.948 C 8.127 10.079,8.251 9.970,8.515 9.480 C 8.788 8.973,10.325 7.203,11.154 6.441 C 11.468 6.153,11.955 5.682,12.237 5.395 C 14.813 2.776,16.721 1.945,19.917 2.052 C 23.913 2.186,25.114 2.915,22.500 3.621 C 19.968 4.304,19.265 4.542,18.352 5.025 C 17.857 5.286,17.358 5.500,17.242 5.500 C 17.041 5.500,15.442 6.661,15.083 7.067 C 14.992 7.170,14.603 7.500,14.219 7.800 L 13.521 8.345 13.603 9.381 C 13.685 10.404,14.384 12.165,14.757 12.283 C 14.950 12.344,15.412 11.922,17.539 9.742 C 19.726 7.500,22.141 5.674,23.289 5.396 C 23.542 5.334,23.997 5.033,24.300 4.725 C 24.602 4.418,24.925 4.167,25.017 4.167 C 25.109 4.167,25.949 3.800,26.884 3.353 C 31.114 1.327,34.583 1.051,37.377 2.520 C 37.675 2.677,39.733 4.705,40.906 6.000 C 41.031 6.138,41.328 6.427,41.566 6.642 C 42.333 7.336,42.161 7.443,40.223 7.474 C 38.684 7.498,35.268 8.010,35.025 8.252 C 34.864 8.414,35.538 8.326,37.128 7.980 C 38.445 7.692,39.087 7.643,40.542 7.718 C 42.594 7.824,42.875 7.572,41.823 6.569 C 41.543 6.302,41.224 5.983,41.115 5.861 C 39.356 3.893,37.420 2.158,36.791 1.988 C 36.402 1.882,35.896 1.733,35.667 1.655 C 35.294 1.530,34.676 1.436,33.083 1.265 C 32.808 1.235,32.171 1.303,31.667 1.415 M33.213 8.805 C 32.550 9.054,31.917 9.350,31.804 9.462 C 31.692 9.575,31.533 9.667,31.451 9.667 C 31.369 9.667,31.067 9.835,30.780 10.042 C 30.493 10.248,29.683 10.754,28.981 11.167 C 27.728 11.903,27.232 12.274,25.353 13.888 C 23.881 15.152,21.692 17.352,21.175 18.087 C 20.915 18.456,20.507 18.862,20.268 18.990 C 19.605 19.345,19.600 20.315,20.258 20.882 C 20.493 21.085,20.894 21.662,21.151 22.167 C 21.662 23.170,22.205 23.398,23.148 23.008 C 23.391 22.907,24.038 22.819,24.587 22.812 C 26.112 22.793,28.560 22.507,28.739 22.327 C 28.828 22.239,29.091 22.166,29.325 22.166 C 29.559 22.165,29.965 22.053,30.227 21.916 C 30.490 21.779,30.879 21.667,31.093 21.667 C 31.306 21.667,31.520 21.602,31.569 21.524 C 31.617 21.445,32.241 21.288,32.954 21.174 C 34.181 20.979,35.333 20.486,35.333 20.155 C 35.333 20.073,35.652 19.797,36.042 19.544 C 37.071 18.875,37.186 18.689,37.099 17.833 C 37.058 17.421,37.081 16.483,37.152 15.750 C 37.289 14.323,37.052 13.343,36.325 12.321 C 35.844 11.646,35.886 10.702,36.403 10.572 C 37.572 10.279,40.587 11.551,41.039 12.528 C 41.449 13.413,41.829 18.713,41.498 18.918 C 41.312 19.033,40.937 19.843,40.668 20.708 C 40.561 21.052,40.411 21.333,40.333 21.333 C 40.256 21.333,40.107 21.591,40.003 21.906 C 39.713 22.786,39.218 23.309,38.559 23.432 C 38.112 23.516,37.915 23.665,37.759 24.035 C 37.645 24.305,37.395 24.614,37.203 24.722 C 35.061 25.916,34.192 26.308,32.083 27.024 C 31.533 27.211,30.961 27.473,30.812 27.606 C 30.663 27.739,30.251 27.892,29.896 27.947 C 28.311 28.191,28.209 28.830,29.625 29.634 C 30.712 30.250,31.063 30.461,31.692 30.875 C 31.935 31.035,32.236 31.167,32.359 31.168 C 32.482 31.168,32.806 31.285,33.078 31.427 C 34.858 32.355,37.797 33.330,38.819 33.332 C 39.884 33.334,39.552 33.163,38.150 32.987 C 37.483 32.903,36.650 32.684,36.297 32.501 C 35.945 32.317,35.549 32.167,35.417 32.167 C 35.286 32.167,35.098 32.017,35.000 31.833 C 34.877 31.604,34.651 31.500,34.276 31.500 C 33.976 31.500,33.585 31.390,33.407 31.255 C 33.229 31.121,32.890 31.008,32.654 31.005 C 32.417 31.002,32.050 30.813,31.833 30.583 C 31.618 30.354,31.304 30.167,31.136 30.167 C 30.968 30.167,30.456 29.904,30.000 29.583 C 29.544 29.262,29.094 29.000,29.002 29.000 C 28.909 29.000,28.833 28.903,28.833 28.783 C 28.833 28.519,29.756 28.167,30.450 28.167 C 30.890 28.167,32.279 27.658,33.206 27.156 C 33.365 27.070,33.579 27.000,33.680 27.000 C 34.360 27.000,37.859 24.941,38.057 24.425 C 38.106 24.296,38.486 24.041,38.900 23.858 C 39.860 23.433,40.677 22.615,41.138 21.618 C 42.192 19.334,42.149 19.512,42.087 17.702 C 41.973 14.371,41.208 11.500,40.435 11.500 C 40.310 11.500,40.115 11.388,40.001 11.251 C 39.887 11.114,39.484 10.924,39.106 10.828 C 38.727 10.733,38.154 10.549,37.833 10.421 C 37.445 10.266,36.999 10.226,36.500 10.302 L 35.750 10.417 35.745 11.531 C 35.740 12.533,35.778 12.664,36.120 12.820 C 36.366 12.932,36.500 13.138,36.500 13.405 C 36.500 13.631,36.619 13.883,36.764 13.965 C 36.984 14.088,37.012 14.331,36.929 15.431 C 36.874 16.157,36.812 17.125,36.790 17.583 C 36.744 18.546,36.447 19.167,36.032 19.167 C 35.873 19.167,35.477 19.386,35.152 19.654 C 34.785 19.956,34.059 20.278,33.239 20.502 C 32.512 20.701,31.786 20.932,31.627 21.015 C 31.468 21.098,31.152 21.167,30.924 21.167 C 30.696 21.167,30.225 21.315,29.876 21.497 C 29.076 21.914,28.115 22.096,25.418 22.340 C 24.237 22.446,23.117 22.591,22.928 22.661 C 22.572 22.792,21.667 22.563,21.667 22.340 C 21.667 22.270,21.491 21.954,21.276 21.637 C 21.061 21.320,20.832 20.849,20.766 20.590 C 20.678 20.236,20.601 20.166,20.457 20.309 C 20.126 20.640,19.977 20.518,20.031 19.961 C 20.069 19.568,20.227 19.330,20.610 19.086 C 20.899 18.901,21.237 18.548,21.360 18.301 C 21.679 17.661,24.820 14.527,26.113 13.558 C 26.462 13.297,27.194 12.727,27.740 12.292 C 28.286 11.856,28.822 11.500,28.930 11.500 C 29.038 11.500,29.224 11.382,29.344 11.237 C 29.502 11.047,29.717 11.004,30.129 11.081 C 30.629 11.175,30.684 11.151,30.597 10.876 C 30.508 10.595,31.235 9.833,31.592 9.833 C 31.650 9.833,31.879 9.691,32.101 9.516 C 32.330 9.336,32.647 9.236,32.835 9.286 C 33.018 9.333,33.167 9.307,33.167 9.227 C 33.167 9.147,33.410 8.982,33.708 8.861 C 34.816 8.411,34.920 8.356,34.667 8.354 C 34.529 8.354,33.875 8.556,33.213 8.805 M67.209 14.250 C 67.211 14.617,67.245 14.747,67.285 14.540 C 67.324 14.332,67.323 14.032,67.281 13.873 C 67.239 13.714,67.207 13.883,67.209 14.250 M6.858 14.335 C 6.534 14.774,6.470 15.120,6.384 16.880 C 6.305 18.514,6.222 19.008,5.964 19.377 C 5.347 20.257,6.336 21.251,8.027 21.451 C 9.324 21.605,9.395 21.195,8.531 18.540 C 8.151 17.372,7.810 16.267,7.773 16.083 C 7.736 15.900,7.697 16.004,7.686 16.314 C 7.664 16.944,7.964 18.127,8.236 18.482 C 8.442 18.751,8.815 20.091,8.826 20.600 C 8.840 21.276,7.061 21.025,6.330 20.247 C 5.978 19.872,5.967 19.812,6.206 19.543 C 6.397 19.328,6.485 18.764,6.537 17.417 C 6.630 15.032,7.060 14.017,7.473 15.208 C 7.656 15.736,7.659 15.732,7.574 15.016 C 7.440 13.878,7.297 13.742,6.858 14.335 M75.872 14.333 C 75.872 14.654,75.906 14.785,75.948 14.625 C 75.990 14.465,75.990 14.202,75.948 14.042 C 75.906 13.881,75.872 14.012,75.872 14.333 M257.076 22.667 C 257.076 26.196,257.098 27.640,257.125 25.875 C 257.152 24.110,257.152 21.223,257.125 19.458 C 257.098 17.694,257.076 19.137,257.076 22.667 M69.075 22.750 C 69.075 25.867,69.097 27.118,69.125 25.531 C 69.152 23.944,69.152 21.394,69.125 19.864 C 69.097 18.335,69.075 19.633,69.075 22.750 M72.031 19.708 C 72.014 21.060,72.056 22.167,72.125 22.167 C 72.194 22.167,72.230 21.436,72.206 20.542 C 72.124 17.531,72.062 17.235,72.031 19.708 M239.705 21.000 C 239.705 21.321,239.740 21.452,239.782 21.292 C 239.823 21.131,239.823 20.869,239.782 20.708 C 239.740 20.548,239.705 20.679,239.705 21.000 M311.903 25.917 C 311.903 27.750,311.928 28.523,311.957 27.634 C 311.987 26.745,311.988 25.245,311.958 24.301 C 311.928 23.356,311.904 24.083,311.903 25.917 M95.705 23.667 C 95.705 23.988,95.740 24.119,95.782 23.958 C 95.823 23.798,95.823 23.535,95.782 23.375 C 95.740 23.215,95.705 23.346,95.705 23.667 M159.235 26.000 C 159.235 27.604,159.260 28.260,159.291 27.458 C 159.321 26.656,159.321 25.344,159.291 24.542 C 159.260 23.740,159.235 24.396,159.235 26.000 M209.402 26.083 C 209.401 27.642,209.426 28.302,209.457 27.550 C 209.488 26.798,209.488 25.523,209.458 24.717 C 209.427 23.910,209.402 24.525,209.402 26.083 M281.708 23.456 C 282.144 23.490,282.856 23.490,283.292 23.456 C 283.727 23.422,283.371 23.393,282.500 23.393 C 281.629 23.393,281.273 23.422,281.708 23.456 M328.208 23.456 C 328.644 23.490,329.356 23.490,329.792 23.456 C 330.227 23.422,329.871 23.393,329.000 23.393 C 328.129 23.393,327.773 23.422,328.208 23.456 M206.714 24.417 C 206.716 24.875,206.748 25.043,206.786 24.789 C 206.825 24.536,206.824 24.161,206.784 23.956 C 206.744 23.751,206.713 23.958,206.714 24.417 M156.542 24.417 C 156.544 24.783,156.578 24.914,156.618 24.706 C 156.658 24.499,156.656 24.199,156.615 24.040 C 156.573 23.880,156.540 24.050,156.542 24.417 M145.900 26.500 C 145.900 27.921,145.926 28.502,145.957 27.792 C 145.988 27.081,145.988 25.919,145.957 25.208 C 145.926 24.498,145.900 25.079,145.900 26.500 M72.064 26.083 C 72.064 27.183,72.091 27.612,72.124 27.035 C 72.156 26.459,72.156 25.559,72.123 25.035 C 72.090 24.512,72.063 24.983,72.064 26.083 M196.067 26.917 C 196.067 28.292,196.093 28.832,196.124 28.117 C 196.155 27.403,196.155 26.278,196.124 25.617 C 196.092 24.957,196.066 25.542,196.067 26.917 M282.125 24.624 C 282.881 24.655,284.119 24.655,284.875 24.624 C 285.631 24.593,285.012 24.568,283.500 24.568 C 281.987 24.568,281.369 24.593,282.125 24.624 M328.625 24.624 C 329.381 24.655,330.619 24.655,331.375 24.624 C 332.131 24.593,331.512 24.568,330.000 24.568 C 328.487 24.568,327.869 24.593,328.625 24.624 M115.167 25.052 C 115.167 25.081,115.410 25.325,115.708 25.594 L 116.250 26.083 115.760 25.542 C 115.304 25.037,115.167 24.923,115.167 25.052 M98.396 27.167 C 98.396 28.221,98.423 28.652,98.456 28.125 C 98.490 27.598,98.490 26.735,98.456 26.208 C 98.423 25.681,98.396 26.113,98.396 27.167 M335.833 25.719 C 335.833 25.748,336.077 25.991,336.375 26.260 L 336.917 26.750 336.427 26.208 C 335.971 25.703,335.833 25.590,335.833 25.719 M324.539 26.333 C 324.539 26.654,324.573 26.785,324.615 26.625 C 324.657 26.465,324.657 26.202,324.615 26.042 C 324.573 25.881,324.539 26.012,324.539 26.333 M156.560 27.833 C 156.560 28.704,156.588 29.060,156.623 28.625 C 156.657 28.190,156.657 27.477,156.623 27.042 C 156.588 26.606,156.560 26.962,156.560 27.833 M206.727 27.833 C 206.727 28.704,206.755 29.060,206.789 28.625 C 206.824 28.190,206.824 27.477,206.789 27.042 C 206.755 26.606,206.727 26.962,206.727 27.833 M117.045 28.500 C 117.045 28.912,117.078 29.081,117.118 28.875 C 117.157 28.669,117.157 28.331,117.118 28.125 C 117.078 27.919,117.045 28.087,117.045 28.500 M67.205 31.167 C 67.205 31.488,67.240 31.619,67.282 31.458 C 67.323 31.298,67.323 31.035,67.282 30.875 C 67.240 30.715,67.205 30.846,67.205 31.167 M108.539 31.167 C 108.539 31.488,108.573 31.619,108.615 31.458 C 108.657 31.298,108.657 31.035,108.615 30.875 C 108.573 30.715,108.539 30.846,108.539 31.167 M118.539 31.167 C 118.539 31.488,118.573 31.619,118.615 31.458 C 118.657 31.298,118.657 31.035,118.615 30.875 C 118.573 30.715,118.539 30.846,118.539 31.167 M193.705 31.167 C 193.705 31.488,193.740 31.619,193.782 31.458 C 193.823 31.298,193.823 31.035,193.782 30.875 C 193.740 30.715,193.705 30.846,193.705 31.167 M217.705 31.167 C 217.705 31.488,217.740 31.619,217.782 31.458 C 217.823 31.298,217.823 31.035,217.782 30.875 C 217.740 30.715,217.705 30.846,217.705 31.167 M293.872 31.167 C 293.872 31.488,293.906 31.619,293.948 31.458 C 293.990 31.298,293.990 31.035,293.948 30.875 C 293.906 30.715,293.872 30.846,293.872 31.167 M378.627 30.951 C 378.834 30.991,379.134 30.990,379.294 30.948 C 379.453 30.906,379.283 30.874,378.917 30.875 C 378.550 30.877,378.420 30.911,378.627 30.951 M375.125 31.784 C 375.331 31.824,375.669 31.824,375.875 31.784 C 376.081 31.745,375.912 31.712,375.500 31.712 C 375.087 31.712,374.919 31.745,375.125 31.784 M380.292 31.784 C 380.498 31.824,380.835 31.824,381.042 31.784 C 381.248 31.745,381.079 31.712,380.667 31.712 C 380.254 31.712,380.085 31.745,380.292 31.784 M365.208 31.948 C 365.369 31.990,365.631 31.990,365.792 31.948 C 365.952 31.906,365.821 31.872,365.500 31.872 C 365.179 31.872,365.048 31.906,365.208 31.948 M384.542 31.948 C 384.702 31.990,384.965 31.990,385.125 31.948 C 385.285 31.906,385.154 31.872,384.833 31.872 C 384.512 31.872,384.381 31.906,384.542 31.948 " stroke="none" fill="#c7d9e0" fill-rule="evenodd"></path></g></svg>