<svg id="svg" xmlns="http://www.w3.org/2000/svg" xmlns:xlink="http://www.w3.org/1999/xlink" width="400" height="236.47234678624815" viewBox="0, 0, 400,236.47234678624815"><g id="svgg"><path id="path0" d="M204.376 14.202 C 201.350 14.397,199.062 14.888,194.678 16.282 C 193.051 16.800,190.231 17.504,188.409 17.847 C 183.248 18.818,182.267 19.228,169.012 25.941 C 165.370 27.786,161.271 29.732,159.905 30.264 C 156.420 31.624,155.812 31.960,153.350 33.891 C 151.927 35.007,149.960 36.212,147.684 37.363 C 144.257 39.095,142.733 40.118,139.444 42.893 C 136.519 45.361,134.560 46.608,130.660 48.486 C 125.137 51.146,121.129 54.503,115.546 61.147 C 111.443 66.031,97.772 79.584,96.209 80.318 C 91.142 82.699,85.535 78.050,83.643 69.899 C 83.280 68.338,82.542 65.464,82.003 63.513 L 81.023 59.965 81.020 55.707 C 81.016 49.386,81.453 48.669,86.922 46.027 C 90.382 44.355,92.227 43.006,96.052 39.355 C 100.202 35.393,101.643 34.419,106.682 32.172 C 108.048 31.563,110.816 30.140,112.833 29.010 C 117.069 26.636,118.991 25.847,123.314 24.708 C 132.794 22.209,137.836 19.600,136.353 17.960 C 133.771 15.105,115.420 14.060,108.338 16.365 C 105.103 17.418,100.244 19.638,98.458 20.880 C 86.048 29.509,81.738 33.061,78.357 37.448 C 76.678 39.626,75.199 41.000,71.910 43.434 C 69.620 45.129,67.893 46.861,65.817 49.542 C 64.703 50.981,62.718 53.279,61.405 54.648 C 60.092 56.017,58.326 58.134,57.481 59.352 C 52.835 66.042,49.980 68.933,43.170 73.844 C 37.650 77.825,32.792 82.695,28.900 88.147 C 28.078 89.299,26.984 90.775,26.471 91.425 C 24.180 94.326,23.663 96.437,23.662 102.898 C 23.661 114.601,25.237 118.569,30.337 119.702 C 34.679 120.667,35.334 119.142,35.723 107.156 C 36.143 94.200,36.190 93.847,38.356 87.378 C 39.694 83.378,40.973 82.081,43.576 82.082 C 46.774 82.083,48.644 85.427,50.133 93.807 C 50.970 98.515,52.197 103.582,53.222 106.564 C 53.625 107.735,54.433 110.343,55.019 112.360 C 55.766 114.933,56.606 117.119,57.839 119.692 C 59.105 122.336,59.899 124.415,60.684 127.144 C 63.202 135.889,66.300 137.731,79.007 138.041 C 85.090 138.189,90.991 138.828,94.226 139.689 C 97.101 140.454,102.097 140.976,106.573 140.979 C 108.530 140.981,111.404 141.140,112.960 141.335 C 124.136 142.729,126.642 140.003,122.257 131.221 C 119.156 125.008,119.765 121.819,125.165 116.004 C 126.340 114.739,128.111 112.630,129.101 111.317 C 132.110 107.328,134.024 105.132,139.158 99.782 C 143.764 94.982,145.098 93.751,148.669 91.008 C 149.450 90.409,151.206 88.833,152.572 87.506 C 153.938 86.179,155.429 84.818,155.884 84.480 C 157.176 83.523,159.518 81.499,162.791 78.513 C 168.009 73.752,175.738 68.682,183.525 64.913 C 187.265 63.102,188.113 62.542,191.108 59.899 C 194.895 56.558,197.534 55.167,202.667 53.808 C 205.555 53.044,207.428 52.385,209.165 51.525 C 209.912 51.155,212.191 50.369,214.228 49.779 C 216.265 49.189,218.103 48.615,218.312 48.503 C 218.522 48.391,221.387 47.535,224.680 46.601 C 230.975 44.817,232.987 44.485,236.665 44.629 C 242.701 44.865,249.385 43.516,250.258 41.885 C 252.475 37.741,238.632 22.542,229.923 19.559 C 228.947 19.225,227.297 18.623,226.257 18.223 C 223.810 17.281,219.719 16.260,215.849 15.625 C 214.157 15.347,212.028 14.922,211.118 14.678 C 208.899 14.086,207.604 13.995,204.376 14.202 M232.388 70.745 C 229.810 71.494,230.382 74.503,234.771 83.264 C 237.268 88.251,237.126 87.536,237.036 94.659 C 237.017 96.178,237.059 97.668,237.130 97.971 C 237.201 98.274,237.356 99.854,237.475 101.484 C 237.780 105.683,238.275 106.446,240.697 106.446 C 244.680 106.446,248.216 104.167,250.906 99.869 C 256.245 91.336,256.461 82.400,251.452 77.325 C 248.199 74.029,235.807 69.752,232.388 70.745 M53.573 177.876 C 49.591 178.778,50.209 184.736,54.995 191.584 C 56.466 193.689,56.853 194.556,57.508 197.218 C 57.776 198.305,58.331 199.773,58.743 200.480 C 61.985 206.049,63.687 208.019,67.771 210.927 C 71.641 213.683,75.040 217.216,81.542 225.242 C 82.424 226.330,84.023 228.272,85.094 229.555 C 86.267 230.959,87.225 232.369,87.500 233.094 C 87.751 233.757,88.183 234.805,88.460 235.423 L 88.964 236.546 108.941 236.546 C 119.928 236.546,128.918 236.508,128.918 236.461 C 128.918 236.138,125.248 235.338,122.886 235.146 C 117.794 234.733,114.156 233.399,106.127 229.001 C 104.286 227.993,101.651 226.631,100.272 225.975 C 97.418 224.617,96.408 223.790,94.284 221.069 C 92.506 218.793,91.760 218.158,87.487 215.285 C 83.230 212.424,82.693 211.805,80.525 207.273 C 78.263 202.543,78.232 202.158,79.803 198.145 C 82.762 190.588,82.835 188.127,80.152 186.393 C 78.238 185.156,76.408 184.857,72.993 185.225 C 68.578 185.700,67.575 185.356,64.666 182.369 C 61.470 179.089,56.716 177.163,53.573 177.876 M165.701 184.031 C 158.714 184.251,155.471 184.551,151.648 185.330 C 147.000 186.276,143.335 186.540,131.875 186.753 C 128.882 186.809,125.955 186.955,125.370 187.079 C 124.784 187.202,122.868 187.423,121.112 187.570 C 115.298 188.057,114.094 188.528,114.322 190.225 C 114.485 191.443,115.680 193.255,117.045 194.355 C 117.655 194.847,120.284 197.394,122.886 200.014 L 127.617 204.778 131.315 206.599 C 135.793 208.806,136.400 209.184,139.562 211.743 C 142.509 214.127,145.091 215.939,147.842 217.553 C 148.947 218.202,150.810 219.353,151.981 220.110 C 153.151 220.867,154.535 221.670,155.056 221.894 C 155.576 222.119,157.705 223.022,159.787 223.901 C 164.146 225.742,165.365 226.465,168.303 228.951 C 172.183 232.233,174.610 233.899,176.937 234.877 C 177.652 235.178,178.763 235.676,179.406 235.985 L 180.573 236.546 212.416 236.546 L 244.259 236.546 245.311 235.785 C 245.890 235.367,246.416 234.964,246.481 234.890 C 246.546 234.816,246.919 234.511,247.309 234.211 C 250.252 231.950,252.193 229.610,253.119 227.204 C 254.427 223.808,255.605 222.588,259.728 220.359 C 263.294 218.431,264.592 217.025,264.855 214.804 C 265.183 212.037,263.143 211.507,256.897 212.737 C 252.589 213.586,249.679 213.582,245.478 212.725 C 242.657 212.149,241.830 212.083,237.256 212.074 L 232.170 212.064 230.041 211.316 C 228.870 210.904,225.943 209.643,223.536 208.512 C 217.837 205.835,215.904 205.044,212.892 204.156 C 210.565 203.471,208.764 202.833,207.096 202.104 C 206.706 201.934,205.003 201.298,203.312 200.691 C 199.264 199.239,198.398 198.728,191.201 193.547 C 187.177 190.650,185.968 189.856,184.300 189.015 C 183.471 188.597,181.608 187.532,180.160 186.648 C 175.138 183.582,175.846 183.710,165.701 184.031 " stroke="none" fill="#37acdd" fill-rule="evenodd"></path><path id="path1" d="M202.247 8.779 C 198.904 9.314,193.764 10.552,190.538 11.598 C 188.587 12.231,185.659 13.080,184.033 13.485 C 179.784 14.542,173.530 17.153,169.012 19.755 C 168.492 20.055,166.097 21.223,163.690 22.352 C 153.297 27.226,153.273 27.240,150.871 29.529 C 148.337 31.943,148.356 31.931,144.831 33.247 C 141.538 34.477,140.084 35.337,134.715 39.231 C 132.375 40.929,129.501 42.820,128.329 43.433 C 125.269 45.034,124.343 45.705,121.821 48.148 C 120.585 49.345,118.776 50.931,117.800 51.672 C 115.871 53.138,102.720 66.460,99.782 69.925 C 94.675 75.948,92.210 76.054,89.358 70.371 C 87.243 66.156,86.621 63.425,86.528 57.931 C 86.439 52.731,86.451 52.706,90.361 49.783 C 91.206 49.151,93.536 47.191,95.537 45.429 C 103.657 38.278,105.450 36.991,109.744 35.235 C 111.363 34.573,114.557 33.122,116.841 32.010 C 122.124 29.439,122.622 29.248,126.000 28.491 C 127.540 28.146,129.911 27.447,131.269 26.937 C 134.663 25.663,139.556 24.268,143.229 23.527 C 148.548 22.453,150.444 21.120,150.444 18.451 C 150.444 16.003,148.671 14.655,144.530 13.955 C 143.684 13.813,140.597 13.210,137.670 12.617 C 128.408 10.740,112.364 10.487,107.725 12.146 C 97.598 15.767,97.441 15.839,94.224 18.392 C 92.945 19.408,90.940 20.923,89.769 21.760 C 83.738 26.073,80.070 29.109,76.641 32.628 C 74.726 34.593,73.059 36.060,71.910 36.791 C 69.071 38.597,68.202 39.410,66.131 42.197 C 65.057 43.643,63.162 45.890,61.920 47.191 C 57.912 51.388,54.665 55.364,53.045 58.056 C 50.544 62.213,47.376 65.013,40.684 68.984 C 35.304 72.176,29.864 77.628,26.669 83.028 C 26.092 84.004,24.848 86.010,23.905 87.488 C 19.385 94.570,18.856 97.602,19.747 111.344 C 20.107 116.893,20.379 118.380,21.527 121.076 C 22.544 123.468,22.885 125.261,23.062 129.154 C 23.147 131.041,23.427 134.447,23.684 136.724 C 23.941 139.001,24.307 142.247,24.499 143.938 C 24.917 147.637,25.232 148.663,26.693 151.077 C 27.309 152.095,28.225 153.666,28.728 154.569 C 29.852 156.588,30.981 157.832,33.455 159.780 C 34.505 160.606,36.162 162.099,37.138 163.098 C 38.114 164.097,39.976 165.665,41.277 166.584 C 44.211 168.655,44.828 169.217,45.591 170.512 L 46.196 171.538 46.236 178.199 C 46.268 183.533,46.358 185.227,46.685 186.699 C 47.318 189.546,48.706 193.948,49.424 195.387 C 50.923 198.391,53.345 202.475,54.747 204.364 C 55.574 205.476,56.763 207.327,57.391 208.475 C 58.771 211.002,60.263 212.545,62.754 214.025 C 63.934 214.726,65.255 215.797,66.317 216.913 C 67.246 217.889,70.036 220.710,72.518 223.182 C 75.000 225.653,77.608 228.367,78.314 229.212 C 79.020 230.057,79.793 230.962,80.031 231.223 C 80.270 231.484,80.908 232.284,81.451 233.001 C 81.993 233.719,82.858 234.810,83.374 235.426 L 84.311 236.546 86.629 236.546 L 88.948 236.546 88.562 235.659 C 88.350 235.171,87.916 234.118,87.599 233.318 C 87.216 232.355,86.368 231.080,85.084 229.543 C 84.018 228.266,82.424 226.330,81.542 225.242 C 75.040 217.216,71.641 213.683,67.771 210.927 C 63.687 208.019,61.985 206.049,58.743 200.480 C 58.331 199.773,57.776 198.305,57.508 197.218 C 56.853 194.556,56.466 193.689,54.995 191.584 C 51.750 186.940,50.253 182.242,51.236 179.785 C 52.689 176.153,59.977 177.556,64.666 182.369 C 67.575 185.356,68.578 185.700,72.993 185.225 C 76.408 184.857,78.238 185.156,80.152 186.393 C 82.835 188.127,82.762 190.588,79.803 198.145 C 78.232 202.158,78.263 202.543,80.525 207.273 C 82.693 211.805,83.230 212.424,87.487 215.285 C 91.760 218.158,92.506 218.793,94.284 221.069 C 96.408 223.790,97.418 224.617,100.272 225.975 C 101.651 226.631,104.286 227.993,106.127 229.001 C 114.194 233.420,117.784 234.732,122.968 235.156 C 124.899 235.314,126.461 235.589,127.580 235.969 C 129.159 236.504,129.591 236.542,134.004 236.526 L 138.734 236.508 137.788 236.057 C 137.268 235.809,136.257 235.422,135.541 235.196 C 134.826 234.970,132.910 234.132,131.283 233.334 C 127.717 231.583,125.749 230.903,121.468 229.940 C 117.784 229.113,117.035 228.819,113.907 226.978 C 112.680 226.256,111.607 225.665,111.521 225.665 C 111.436 225.665,110.351 225.068,109.110 224.337 C 107.869 223.607,105.692 222.606,104.273 222.112 C 100.821 220.912,99.530 220.095,96.370 217.107 C 94.900 215.718,92.421 213.617,90.860 212.438 C 85.285 208.229,84.619 205.634,87.010 197.444 C 89.736 188.105,92.544 185.163,97.992 185.934 C 101.826 186.477,103.623 187.590,106.312 191.086 C 108.148 193.474,111.305 196.430,115.051 199.271 C 118.881 202.175,121.890 204.760,124.094 207.039 C 125.570 208.564,126.763 209.551,127.879 210.170 C 128.776 210.667,130.627 211.785,131.993 212.654 C 133.359 213.523,135.033 214.533,135.713 214.899 C 136.394 215.264,138.203 216.677,139.735 218.037 L 142.519 220.510 150.554 224.533 C 155.806 227.163,159.534 229.196,161.317 230.403 C 164.393 232.485,168.438 235.010,170.171 235.931 C 171.335 236.549,180.802 236.948,180.118 236.350 C 179.995 236.242,178.936 235.741,177.765 235.237 C 174.505 233.834,172.501 232.502,168.303 228.951 C 165.365 226.465,164.146 225.742,159.787 223.901 C 157.705 223.022,155.576 222.119,155.056 221.894 C 154.535 221.670,153.151 220.867,151.981 220.110 C 150.810 219.353,148.947 218.202,147.842 217.553 C 145.091 215.939,142.509 214.127,139.562 211.743 C 136.400 209.184,135.793 208.806,131.315 206.599 L 127.617 204.778 122.886 200.014 C 120.284 197.394,117.655 194.847,117.045 194.355 C 115.680 193.255,114.485 191.443,114.322 190.225 C 114.094 188.528,115.298 188.057,121.112 187.570 C 122.868 187.423,124.784 187.202,125.370 187.079 C 125.955 186.955,128.882 186.809,131.875 186.753 C 143.321 186.540,147.001 186.276,151.626 185.334 C 155.621 184.521,158.337 184.288,166.765 184.039 C 175.971 183.767,175.186 183.614,180.160 186.649 C 181.608 187.532,183.471 188.597,184.300 189.015 C 185.968 189.856,187.177 190.650,191.201 193.547 C 198.398 198.728,199.264 199.239,203.312 200.691 C 205.003 201.298,206.706 201.934,207.096 202.104 C 208.764 202.833,210.565 203.471,212.892 204.156 C 215.904 205.044,217.837 205.835,223.536 208.512 C 225.943 209.643,228.870 210.904,230.041 211.316 L 232.170 212.064 237.256 212.074 C 241.830 212.083,242.657 212.149,245.478 212.725 C 249.679 213.582,252.589 213.586,256.897 212.737 C 263.143 211.507,265.183 212.037,264.855 214.804 C 264.592 217.025,263.294 218.431,259.728 220.359 C 255.605 222.588,254.427 223.808,253.119 227.204 C 252.193 229.610,250.252 231.950,247.309 234.211 C 246.919 234.511,246.546 234.816,246.481 234.890 C 246.416 234.964,245.890 235.367,245.311 235.785 L 244.259 236.546 247.231 236.546 C 249.804 236.546,250.280 236.486,250.781 236.092 C 251.099 235.841,251.964 235.350,252.705 235.000 C 254.401 234.196,255.305 233.270,257.426 230.160 C 259.599 226.975,260.490 226.020,263.456 223.704 C 265.303 222.261,266.317 221.238,267.701 219.420 C 268.701 218.106,270.400 215.904,271.478 214.526 C 274.776 210.309,275.178 208.551,273.132 207.313 C 271.642 206.411,263.972 206.676,259.846 207.770 C 253.528 209.447,250.538 209.653,245.277 208.774 C 243.402 208.461,240.892 208.138,239.698 208.057 C 234.349 207.694,228.656 205.762,219.633 201.246 C 218.037 200.448,215.871 199.616,214.030 199.095 C 212.380 198.628,210.091 197.777,208.945 197.204 C 207.798 196.631,205.782 195.829,204.464 195.422 C 202.671 194.868,201.519 194.321,199.878 193.244 C 198.674 192.452,196.640 191.287,195.360 190.655 C 194.080 190.022,192.281 189.018,191.363 188.423 C 190.444 187.829,188.328 186.495,186.661 185.460 C 179.346 180.915,180.208 178.061,189.307 176.691 C 193.085 176.123,193.296 176.058,197.137 174.291 C 198.814 173.520,201.422 172.478,202.932 171.977 C 204.442 171.476,206.643 170.641,207.825 170.121 C 209.006 169.601,211.241 168.727,212.792 168.178 C 222.159 164.864,234.827 157.259,237.899 153.104 C 239.294 151.218,240.311 150.461,242.612 149.594 C 247.763 147.655,252.628 143.204,255.643 137.670 C 256.033 136.954,256.785 135.571,257.314 134.595 C 257.843 133.619,258.697 131.597,259.212 130.101 C 259.727 128.604,260.540 126.437,261.019 125.284 C 263.596 119.081,263.692 106.557,261.277 91.425 C 260.966 89.474,260.640 87.132,260.554 86.221 C 259.574 75.913,255.082 71.491,241.234 67.209 C 227.714 63.029,223.237 65.066,225.056 74.573 C 225.498 76.886,225.784 77.519,227.593 80.189 C 229.506 83.011,231.988 88.719,232.245 90.886 C 232.599 93.863,232.155 102.023,231.463 105.258 L 230.832 108.209 231.259 110.462 C 232.399 116.476,231.460 118.275,225.285 121.908 C 223.607 122.894,221.224 124.500,219.988 125.476 C 216.105 128.543,214.761 129.096,205.878 131.282 C 202.736 132.056,199.437 132.967,198.545 133.306 C 197.654 133.646,195.554 134.235,193.879 134.617 C 192.086 135.025,189.703 135.786,188.084 136.469 C 180.490 139.667,172.043 141.153,158.368 141.698 C 152.254 141.941,149.002 142.341,145.713 143.253 C 139.757 144.905,136.375 143.533,133.666 138.366 C 131.712 134.638,129.541 131.420,127.582 129.346 C 124.256 125.827,124.595 123.096,128.772 119.776 C 131.393 117.691,131.945 117.117,133.417 114.942 C 134.173 113.825,135.426 112.122,136.202 111.157 C 138.017 108.902,153.555 93.299,155.884 91.393 C 156.860 90.595,157.924 89.648,158.250 89.290 C 159.248 88.191,162.721 85.374,165.582 83.344 C 167.079 82.282,169.315 80.526,170.552 79.441 C 175.531 75.075,182.000 70.958,187.252 68.813 C 189.690 67.817,190.245 67.463,192.194 65.659 C 195.119 62.952,201.689 59.043,204.967 58.058 C 206.138 57.707,208.001 56.995,209.107 56.478 C 214.093 54.144,223.765 51.390,230.886 50.276 C 233.024 49.942,235.624 49.458,236.665 49.201 C 240.823 48.174,244.314 47.948,259.688 47.709 L 262.606 47.664 263.296 46.892 C 264.933 45.059,263.879 43.166,258.391 38.084 C 257.478 37.238,256.296 35.908,255.765 35.127 C 254.608 33.425,239.108 17.754,237.256 16.413 C 230.432 11.473,211.376 7.318,202.247 8.779 M211.118 14.678 C 212.028 14.922,214.157 15.347,215.849 15.625 C 219.719 16.260,223.810 17.281,226.257 18.223 C 227.297 18.623,228.947 19.225,229.923 19.559 C 238.632 22.542,252.475 37.741,250.258 41.885 C 249.385 43.516,242.701 44.865,236.665 44.629 C 232.987 44.485,230.975 44.817,224.680 46.601 C 221.387 47.535,218.522 48.391,218.312 48.503 C 218.103 48.615,216.265 49.189,214.228 49.779 C 212.191 50.369,209.912 51.155,209.165 51.525 C 207.428 52.385,205.555 53.044,202.667 53.808 C 197.534 55.167,194.895 56.558,191.108 59.899 C 188.113 62.542,187.265 63.102,183.525 64.913 C 175.738 68.682,168.009 73.752,162.791 78.513 C 159.518 81.499,157.176 83.523,155.884 84.480 C 155.429 84.818,153.938 86.179,152.572 87.506 C 151.206 88.833,149.450 90.409,148.669 91.008 C 145.098 93.751,143.764 94.982,139.158 99.782 C 134.024 105.132,132.110 107.328,129.101 111.317 C 128.111 112.630,126.340 114.739,125.165 116.004 C 119.765 121.819,119.156 125.008,122.257 131.221 C 126.642 140.003,124.136 142.729,112.960 141.335 C 111.404 141.140,108.530 140.981,106.573 140.979 C 102.097 140.976,97.101 140.454,94.226 139.689 C 90.991 138.828,85.090 138.189,79.007 138.041 C 66.300 137.731,63.202 135.889,60.684 127.144 C 59.899 124.415,59.105 122.336,57.839 119.692 C 56.606 117.119,55.766 114.933,55.019 112.360 C 54.433 110.343,53.625 107.735,53.222 106.564 C 52.197 103.582,50.970 98.515,50.133 93.807 C 48.644 85.427,46.774 82.083,43.576 82.082 C 40.973 82.081,39.694 83.378,38.356 87.378 C 36.190 93.847,36.143 94.200,35.723 107.156 C 35.334 119.142,34.679 120.667,30.337 119.702 C 25.237 118.569,23.661 114.601,23.662 102.898 C 23.663 96.437,24.180 94.326,26.471 91.425 C 26.984 90.775,28.078 89.299,28.900 88.147 C 32.792 82.695,37.650 77.825,43.170 73.844 C 49.980 68.933,52.835 66.042,57.481 59.352 C 58.326 58.134,60.092 56.017,61.405 54.648 C 62.718 53.279,64.703 50.981,65.817 49.542 C 67.893 46.861,69.620 45.129,71.910 43.434 C 75.199 41.000,76.678 39.626,78.357 37.448 C 81.738 33.061,86.048 29.509,98.458 20.880 C 100.244 19.638,105.103 17.418,108.338 16.365 C 115.420 14.060,133.771 15.105,136.353 17.960 C 137.836 19.600,132.794 22.209,123.314 24.708 C 118.991 25.847,117.069 26.636,112.833 29.010 C 110.816 30.140,108.048 31.563,106.682 32.172 C 101.643 34.419,100.202 35.393,96.052 39.355 C 92.227 43.006,90.382 44.355,86.922 46.027 C 81.453 48.669,81.016 49.386,81.020 55.707 L 81.023 59.965 82.003 63.513 C 82.542 65.464,83.280 68.338,83.643 69.899 C 85.535 78.050,91.142 82.699,96.209 80.318 C 97.772 79.584,111.443 66.031,115.546 61.147 C 121.129 54.503,125.137 51.146,130.660 48.486 C 134.560 46.608,136.519 45.361,139.444 42.893 C 142.733 40.118,144.257 39.095,147.684 37.363 C 149.960 36.212,151.927 35.007,153.350 33.891 C 155.812 31.960,156.420 31.624,159.905 30.264 C 161.271 29.732,165.370 27.786,169.012 25.941 C 182.267 19.228,183.248 18.818,188.409 17.847 C 190.231 17.504,193.051 16.800,194.678 16.282 C 201.846 14.002,206.781 13.521,211.118 14.678 M236.618 70.878 C 238.667 71.343,247.013 74.294,248.703 75.150 C 253.689 77.677,256.463 85.370,254.580 91.447 C 251.530 101.287,246.755 106.446,240.697 106.446 C 238.275 106.446,237.780 105.683,237.475 101.484 C 237.356 99.854,237.201 98.274,237.130 97.971 C 237.059 97.668,237.017 96.178,237.036 94.659 C 237.126 87.536,237.268 88.251,234.771 83.264 C 229.159 72.059,229.574 69.277,236.618 70.878 M45.512 93.983 C 46.549 95.019,47.155 97.202,48.141 103.444 C 48.592 106.303,50.498 112.664,52.088 116.617 C 57.203 129.339,56.785 133.176,50.281 133.176 C 46.704 133.176,43.167 131.787,40.581 129.368 C 37.712 126.684,37.499 125.278,39.387 121.500 L 40.516 119.239 40.707 115.385 C 40.812 113.266,40.906 109.616,40.915 107.274 C 40.953 97.020,42.906 91.376,45.512 93.983 " stroke="none" fill="#9ac9df" fill-rule="evenodd"></path><path id="path2" d="M0.000 118.273 L 0.000 236.546 42.136 236.546 L 84.271 236.546 83.648 235.778 C 83.305 235.355,82.449 234.264,81.744 233.353 C 81.040 232.442,80.269 231.484,80.031 231.223 C 79.793 230.962,79.020 230.057,78.314 229.212 C 77.608 228.367,75.000 225.653,72.518 223.182 C 70.036 220.710,67.246 217.889,66.317 216.913 C 65.255 215.797,63.934 214.726,62.754 214.025 C 60.263 212.545,58.771 211.002,57.391 208.475 C 56.763 207.327,55.574 205.476,54.747 204.364 C 53.345 202.475,50.923 198.391,49.424 195.387 C 48.706 193.948,47.318 189.546,46.685 186.699 C 46.358 185.227,46.268 183.533,46.236 178.199 L 46.196 171.538 45.591 170.512 C 44.828 169.217,44.211 168.655,41.277 166.584 C 39.976 165.665,38.114 164.097,37.138 163.098 C 36.162 162.099,34.505 160.606,33.455 159.780 C 30.981 157.832,29.852 156.588,28.728 154.569 C 28.225 153.666,27.309 152.095,26.693 151.077 C 25.232 148.663,24.917 147.637,24.499 143.938 C 24.307 142.247,23.941 139.001,23.684 136.724 C 23.427 134.447,23.147 131.041,23.062 129.154 C 22.885 125.261,22.544 123.468,21.527 121.076 C 20.379 118.380,20.107 116.893,19.747 111.344 C 18.856 97.602,19.385 94.570,23.905 87.488 C 24.848 86.010,26.092 84.004,26.669 83.028 C 29.864 77.628,35.304 72.176,40.684 68.984 C 47.376 65.013,50.544 62.213,53.045 58.056 C 54.665 55.364,57.912 51.388,61.920 47.191 C 63.162 45.890,65.057 43.643,66.131 42.197 C 68.202 39.410,69.071 38.597,71.910 36.791 C 73.059 36.060,74.726 34.593,76.641 32.628 C 80.070 29.109,83.738 26.073,89.769 21.760 C 90.940 20.923,92.945 19.408,94.224 18.392 C 97.441 15.839,97.598 15.767,107.725 12.146 C 112.364 10.487,128.408 10.740,137.670 12.617 C 140.597 13.210,143.684 13.813,144.530 13.955 C 148.671 14.655,150.444 16.003,150.444 18.451 C 150.444 21.120,148.548 22.453,143.229 23.527 C 139.556 24.268,134.663 25.663,131.269 26.937 C 129.911 27.447,127.540 28.146,126.000 28.491 C 122.622 29.248,122.124 29.439,116.841 32.010 C 114.557 33.122,111.363 34.573,109.744 35.235 C 105.450 36.991,103.657 38.278,95.537 45.429 C 93.536 47.191,91.206 49.151,90.361 49.783 C 86.451 52.706,86.439 52.731,86.528 57.931 C 86.621 63.425,87.243 66.156,89.358 70.371 C 92.210 76.054,94.675 75.948,99.782 69.925 C 102.720 66.460,115.871 53.138,117.800 51.672 C 118.776 50.931,120.585 49.345,121.821 48.148 C 124.343 45.705,125.269 45.034,128.329 43.433 C 129.501 42.820,132.375 40.929,134.715 39.231 C 140.084 35.337,141.538 34.477,144.831 33.247 C 148.356 31.931,148.337 31.943,150.871 29.529 C 153.273 27.240,153.297 27.226,163.690 22.352 C 166.097 21.223,168.492 20.055,169.012 19.755 C 173.649 17.085,179.771 14.549,184.388 13.387 C 186.209 12.928,188.965 12.126,190.511 11.604 C 202.600 7.525,211.270 7.501,225.427 11.508 C 232.495 13.508,234.247 14.235,237.256 16.413 C 239.108 17.754,254.608 33.425,255.765 35.127 C 256.296 35.908,257.478 37.238,258.391 38.084 C 263.879 43.166,264.933 45.059,263.296 46.892 L 262.606 47.664 259.688 47.709 C 244.314 47.948,240.823 48.174,236.665 49.201 C 235.624 49.458,233.024 49.942,230.886 50.276 C 223.765 51.390,214.093 54.144,209.107 56.478 C 208.001 56.995,206.138 57.707,204.967 58.058 C 201.689 59.043,195.119 62.952,192.194 65.659 C 190.245 67.463,189.690 67.817,187.252 68.813 C 182.000 70.958,175.531 75.075,170.552 79.441 C 169.315 80.526,167.079 82.282,165.582 83.344 C 162.721 85.374,159.248 88.191,158.250 89.290 C 157.924 89.648,156.860 90.595,155.884 91.393 C 153.555 93.299,138.017 108.902,136.202 111.157 C 135.426 112.122,134.173 113.825,133.417 114.942 C 131.945 117.117,131.393 117.691,128.772 119.776 C 124.595 123.096,124.256 125.827,127.582 129.346 C 129.541 131.420,131.712 134.638,133.666 138.366 C 136.375 143.533,139.757 144.905,145.713 143.253 C 149.002 142.341,152.254 141.941,158.368 141.698 C 172.043 141.153,180.490 139.667,188.084 136.469 C 189.703 135.786,192.086 135.025,193.879 134.617 C 195.554 134.235,197.654 133.646,198.545 133.306 C 199.437 132.967,202.736 132.056,205.878 131.282 C 214.761 129.096,216.105 128.543,219.988 125.476 C 221.224 124.500,223.607 122.894,225.285 121.908 C 231.460 118.275,232.399 116.476,231.259 110.462 L 230.832 108.209 231.463 105.258 C 232.155 102.023,232.599 93.863,232.245 90.886 C 231.988 88.719,229.506 83.011,227.593 80.189 C 225.784 77.519,225.498 76.886,225.056 74.573 C 223.237 65.066,227.714 63.029,241.234 67.209 C 255.082 71.491,259.574 75.913,260.554 86.221 C 260.640 87.132,260.966 89.474,261.277 91.425 C 262.572 99.540,262.820 102.670,262.853 111.369 C 262.889 120.561,262.846 120.887,261.019 125.284 C 260.540 126.437,259.727 128.604,259.212 130.101 C 258.697 131.597,257.843 133.619,257.314 134.595 C 256.785 135.571,256.033 136.954,255.643 137.670 C 252.628 143.204,247.763 147.655,242.612 149.594 C 240.311 150.461,239.294 151.218,237.899 153.104 C 234.827 157.259,222.159 164.864,212.792 168.178 C 211.241 168.727,209.006 169.601,207.825 170.121 C 206.643 170.641,204.442 171.476,202.932 171.977 C 201.422 172.478,198.814 173.520,197.137 174.291 C 193.296 176.058,193.085 176.123,189.307 176.691 C 180.208 178.061,179.346 180.915,186.661 185.460 C 188.328 186.495,190.444 187.829,191.363 188.423 C 192.281 189.018,194.080 190.022,195.360 190.655 C 196.640 191.287,198.674 192.452,199.878 193.244 C 201.519 194.321,202.671 194.868,204.464 195.422 C 205.782 195.829,207.798 196.631,208.945 197.204 C 210.091 197.777,212.380 198.628,214.030 199.095 C 215.871 199.616,218.037 200.448,219.633 201.246 C 228.656 205.762,234.349 207.694,239.698 208.057 C 240.892 208.138,243.402 208.461,245.277 208.774 C 250.538 209.653,253.528 209.447,259.846 207.770 C 263.972 206.676,271.642 206.411,273.132 207.313 C 275.178 208.551,274.776 210.309,271.478 214.526 C 270.400 215.904,268.701 218.106,267.701 219.420 C 266.317 221.238,265.303 222.261,263.456 223.704 C 260.490 226.020,259.599 226.975,257.426 230.160 C 255.305 233.270,254.401 234.196,252.705 235.000 C 249.082 236.715,241.195 236.546,325.101 236.546 L 400.000 236.546 400.000 118.273 L 400.000 0.000 200.000 0.000 L 0.000 0.000 0.000 118.273 M43.576 93.805 C 41.832 95.026,40.944 99.521,40.915 107.274 C 40.906 109.616,40.812 113.266,40.707 115.385 L 40.516 119.239 39.387 121.500 C 37.499 125.278,37.712 126.684,40.581 129.368 C 43.167 131.787,46.704 133.176,50.281 133.176 C 56.785 133.176,57.203 129.339,52.088 116.617 C 50.498 112.664,48.592 106.303,48.141 103.444 C 46.764 94.727,45.642 92.358,43.576 93.805 M94.852 186.010 C 91.318 186.771,89.241 189.799,87.010 197.444 C 84.619 205.634,85.285 208.229,90.860 212.438 C 92.421 213.617,94.900 215.718,96.370 217.107 C 99.530 220.095,100.821 220.912,104.273 222.112 C 105.692 222.606,107.869 223.607,109.110 224.337 C 110.351 225.068,111.436 225.665,111.521 225.665 C 111.607 225.665,112.680 226.256,113.907 226.978 C 117.037 228.820,117.784 229.112,121.491 229.946 C 125.643 230.879,127.818 231.631,131.520 233.411 C 133.146 234.194,135.381 235.192,136.487 235.629 L 138.498 236.423 154.920 236.488 L 171.342 236.553 170.177 235.934 C 168.438 235.010,164.397 232.487,161.317 230.403 C 159.534 229.196,155.806 227.163,150.554 224.533 L 142.519 220.510 139.735 218.037 C 138.203 216.677,136.394 215.264,135.713 214.899 C 135.033 214.533,133.359 213.523,131.993 212.654 C 130.627 211.785,128.776 210.667,127.879 210.170 C 126.761 209.550,125.572 208.566,124.094 207.036 C 122.064 204.936,118.260 201.693,114.252 198.645 C 111.077 196.232,108.057 193.349,106.220 190.979 C 103.048 186.889,98.995 185.117,94.852 186.010 " stroke="none" fill="#fbfbfb" fill-rule="evenodd"></path></g></svg>